<?xml version='1.0' encoding='utf-8'?>
<svg xmlns="http://www.w3.org/2000/svg" xmlns:xlink="http://www.w3.org/1999/xlink" id="chart-83f6e057-038e-40ba-98d2-cbe696904f9b" class="pygal-chart" viewBox="0 0 800 600"><!--Generated with pygal 3.0.5 (lxml) ©Kozea 2012-2016 on 2024-12-21--><!--http://pygal.org--><!--http://github.com/Kozea/pygal--><defs><style type="text/css">#chart-83f6e057-038e-40ba-98d2-cbe696904f9b{-webkit-user-select:none;-webkit-font-smoothing:antialiased;font-family:Consolas,"Liberation Mono",Menlo,Courier,monospace}#chart-83f6e057-038e-40ba-98d2-cbe696904f9b .title{font-family:Noto Sans CJK SC;font-size:16px}#chart-83f6e057-038e-40ba-98d2-cbe696904f9b .legends .legend text{font-family:Noto Sans CJK SC;font-size:14px}#chart-83f6e057-038e-40ba-98d2-cbe696904f9b .axis text{font-family:Noto Sans CJK SC;font-size:10px}#chart-83f6e057-038e-40ba-98d2-cbe696904f9b .axis text.major{font-family:Noto Sans CJK SC;font-size:10px}#chart-83f6e057-038e-40ba-98d2-cbe696904f9b .text-overlay text.value{font-family:Noto Sans CJK SC;font-size:16px}#chart-83f6e057-038e-40ba-98d2-cbe696904f9b .text-overlay text.label{font-family:Consolas,"Liberation Mono",Menlo,Courier,monospace;font-size:10px}#chart-83f6e057-038e-40ba-98d2-cbe696904f9b .tooltip{font-family:Consolas,"Liberation Mono",Menlo,Courier,monospace;font-size:14px}#chart-83f6e057-038e-40ba-98d2-cbe696904f9b text.no_data{font-family:Consolas,"Liberation Mono",Menlo,Courier,monospace;font-size:64px}
#chart-83f6e057-038e-40ba-98d2-cbe696904f9b{background-color:rgba(249,249,249,1)}#chart-83f6e057-038e-40ba-98d2-cbe696904f9b path,#chart-83f6e057-038e-40ba-98d2-cbe696904f9b line,#chart-83f6e057-038e-40ba-98d2-cbe696904f9b rect,#chart-83f6e057-038e-40ba-98d2-cbe696904f9b circle{-webkit-transition:150ms;-moz-transition:150ms;transition:150ms}#chart-83f6e057-038e-40ba-98d2-cbe696904f9b .graph &gt; .background{fill:rgba(249,249,249,1)}#chart-83f6e057-038e-40ba-98d2-cbe696904f9b .plot &gt; .background{fill:rgba(255,255,255,1)}#chart-83f6e057-038e-40ba-98d2-cbe696904f9b .graph{fill:rgba(0,0,0,.87)}#chart-83f6e057-038e-40ba-98d2-cbe696904f9b text.no_data{fill:rgba(0,0,0,1)}#chart-83f6e057-038e-40ba-98d2-cbe696904f9b .title{fill:rgba(0,0,0,1)}#chart-83f6e057-038e-40ba-98d2-cbe696904f9b .legends .legend text{fill:rgba(0,0,0,.87)}#chart-83f6e057-038e-40ba-98d2-cbe696904f9b .legends .legend:hover text{fill:rgba(0,0,0,1)}#chart-83f6e057-038e-40ba-98d2-cbe696904f9b .axis .line{stroke:rgba(0,0,0,1)}#chart-83f6e057-038e-40ba-98d2-cbe696904f9b .axis .guide.line{stroke:rgba(0,0,0,.54)}#chart-83f6e057-038e-40ba-98d2-cbe696904f9b .axis .major.line{stroke:rgba(0,0,0,.87)}#chart-83f6e057-038e-40ba-98d2-cbe696904f9b .axis text.major{fill:rgba(0,0,0,1)}#chart-83f6e057-038e-40ba-98d2-cbe696904f9b .axis.y .guides:hover .guide.line,#chart-83f6e057-038e-40ba-98d2-cbe696904f9b .line-graph .axis.x .guides:hover .guide.line,#chart-83f6e057-038e-40ba-98d2-cbe696904f9b .stackedline-graph .axis.x .guides:hover .guide.line,#chart-83f6e057-038e-40ba-98d2-cbe696904f9b .xy-graph .axis.x .guides:hover .guide.line{stroke:rgba(0,0,0,1)}#chart-83f6e057-038e-40ba-98d2-cbe696904f9b .axis .guides:hover text{fill:rgba(0,0,0,1)}#chart-83f6e057-038e-40ba-98d2-cbe696904f9b .reactive{fill-opacity:.7;stroke-opacity:.8;stroke-width:1}#chart-83f6e057-038e-40ba-98d2-cbe696904f9b .ci{stroke:rgba(0,0,0,.87)}#chart-83f6e057-038e-40ba-98d2-cbe696904f9b .reactive.active,#chart-83f6e057-038e-40ba-98d2-cbe696904f9b .active .reactive{fill-opacity:.8;stroke-opacity:.9;stroke-width:4}#chart-83f6e057-038e-40ba-98d2-cbe696904f9b .ci .reactive.active{stroke-width:1.5}#chart-83f6e057-038e-40ba-98d2-cbe696904f9b .series text{fill:rgba(0,0,0,1)}#chart-83f6e057-038e-40ba-98d2-cbe696904f9b .tooltip rect{fill:rgba(255,255,255,1);stroke:rgba(0,0,0,1);-webkit-transition:opacity 150ms;-moz-transition:opacity 150ms;transition:opacity 150ms}#chart-83f6e057-038e-40ba-98d2-cbe696904f9b .tooltip .label{fill:rgba(0,0,0,.87)}#chart-83f6e057-038e-40ba-98d2-cbe696904f9b .tooltip .label{fill:rgba(0,0,0,.87)}#chart-83f6e057-038e-40ba-98d2-cbe696904f9b .tooltip .legend{font-size:.8em;fill:rgba(0,0,0,.54)}#chart-83f6e057-038e-40ba-98d2-cbe696904f9b .tooltip .x_label{font-size:.6em;fill:rgba(0,0,0,1)}#chart-83f6e057-038e-40ba-98d2-cbe696904f9b .tooltip .xlink{font-size:.5em;text-decoration:underline}#chart-83f6e057-038e-40ba-98d2-cbe696904f9b .tooltip .value{font-size:1.5em}#chart-83f6e057-038e-40ba-98d2-cbe696904f9b .bound{font-size:.5em}#chart-83f6e057-038e-40ba-98d2-cbe696904f9b .max-value{font-size:.75em;fill:rgba(0,0,0,.54)}#chart-83f6e057-038e-40ba-98d2-cbe696904f9b .map-element{fill:rgba(255,255,255,1);stroke:rgba(0,0,0,.54) !important}#chart-83f6e057-038e-40ba-98d2-cbe696904f9b .map-element .reactive{fill-opacity:inherit;stroke-opacity:inherit}#chart-83f6e057-038e-40ba-98d2-cbe696904f9b .color-0,#chart-83f6e057-038e-40ba-98d2-cbe696904f9b .color-0 a:visited{stroke:#F44336;fill:#F44336}#chart-83f6e057-038e-40ba-98d2-cbe696904f9b .text-overlay .color-0 text{fill:black}
#chart-83f6e057-038e-40ba-98d2-cbe696904f9b text.no_data{text-anchor:middle}#chart-83f6e057-038e-40ba-98d2-cbe696904f9b .guide.line{fill:none}#chart-83f6e057-038e-40ba-98d2-cbe696904f9b .centered{text-anchor:middle}#chart-83f6e057-038e-40ba-98d2-cbe696904f9b .title{text-anchor:middle}#chart-83f6e057-038e-40ba-98d2-cbe696904f9b .legends .legend text{fill-opacity:1}#chart-83f6e057-038e-40ba-98d2-cbe696904f9b .axis.x text{text-anchor:middle}#chart-83f6e057-038e-40ba-98d2-cbe696904f9b .axis.x:not(.web) text[transform]{text-anchor:start}#chart-83f6e057-038e-40ba-98d2-cbe696904f9b .axis.x:not(.web) text[transform].backwards{text-anchor:end}#chart-83f6e057-038e-40ba-98d2-cbe696904f9b .axis.y text{text-anchor:end}#chart-83f6e057-038e-40ba-98d2-cbe696904f9b .axis.y text[transform].backwards{text-anchor:start}#chart-83f6e057-038e-40ba-98d2-cbe696904f9b .axis.y2 text{text-anchor:start}#chart-83f6e057-038e-40ba-98d2-cbe696904f9b .axis.y2 text[transform].backwards{text-anchor:end}#chart-83f6e057-038e-40ba-98d2-cbe696904f9b .axis .guide.line{stroke-dasharray:4,4;stroke:black}#chart-83f6e057-038e-40ba-98d2-cbe696904f9b .axis .major.guide.line{stroke-dasharray:6,6;stroke:black}#chart-83f6e057-038e-40ba-98d2-cbe696904f9b .horizontal .axis.y .guide.line,#chart-83f6e057-038e-40ba-98d2-cbe696904f9b .horizontal .axis.y2 .guide.line,#chart-83f6e057-038e-40ba-98d2-cbe696904f9b .vertical .axis.x .guide.line{opacity:0}#chart-83f6e057-038e-40ba-98d2-cbe696904f9b .horizontal .axis.always_show .guide.line,#chart-83f6e057-038e-40ba-98d2-cbe696904f9b .vertical .axis.always_show .guide.line{opacity:1 !important}#chart-83f6e057-038e-40ba-98d2-cbe696904f9b .axis.y .guides:hover .guide.line,#chart-83f6e057-038e-40ba-98d2-cbe696904f9b .axis.y2 .guides:hover .guide.line,#chart-83f6e057-038e-40ba-98d2-cbe696904f9b .axis.x .guides:hover .guide.line{opacity:1}#chart-83f6e057-038e-40ba-98d2-cbe696904f9b .axis .guides:hover text{opacity:1}#chart-83f6e057-038e-40ba-98d2-cbe696904f9b .nofill{fill:none}#chart-83f6e057-038e-40ba-98d2-cbe696904f9b .subtle-fill{fill-opacity:.2}#chart-83f6e057-038e-40ba-98d2-cbe696904f9b .dot{stroke-width:1px;fill-opacity:1;stroke-opacity:1}#chart-83f6e057-038e-40ba-98d2-cbe696904f9b .dot.active{stroke-width:5px}#chart-83f6e057-038e-40ba-98d2-cbe696904f9b .dot.negative{fill:transparent}#chart-83f6e057-038e-40ba-98d2-cbe696904f9b text,#chart-83f6e057-038e-40ba-98d2-cbe696904f9b tspan{stroke:none !important}#chart-83f6e057-038e-40ba-98d2-cbe696904f9b .series text.active{opacity:1}#chart-83f6e057-038e-40ba-98d2-cbe696904f9b .tooltip rect{fill-opacity:.95;stroke-width:.5}#chart-83f6e057-038e-40ba-98d2-cbe696904f9b .tooltip text{fill-opacity:1}#chart-83f6e057-038e-40ba-98d2-cbe696904f9b .showable{visibility:hidden}#chart-83f6e057-038e-40ba-98d2-cbe696904f9b .showable.shown{visibility:visible}#chart-83f6e057-038e-40ba-98d2-cbe696904f9b .gauge-background{fill:rgba(229,229,229,1);stroke:none}#chart-83f6e057-038e-40ba-98d2-cbe696904f9b .bg-lines{stroke:rgba(249,249,249,1);stroke-width:2px}</style><script type="text/javascript">window.pygal = window.pygal || {};window.pygal.config = window.pygal.config || {};window.pygal.config['83f6e057-038e-40ba-98d2-cbe696904f9b'] = {"allow_interruptions": false, "box_mode": "extremes", "classes": ["pygal-chart"], "css": ["file://style.css", "file://graph.css"], "defs": [], "disable_xml_declaration": false, "dots_size": 2.5, "dynamic_print_values": false, "explicit_size": false, "fill": false, "force_uri_protocol": "https", "formatter": null, "half_pie": false, "height": 600, "include_x_axis": false, "inner_radius": 0, "interpolate": "cubic", "interpolation_parameters": {}, "interpolation_precision": 250, "inverse_y_axis": false, "js": ["//kozea.github.io/pygal.js/2.0.x/pygal-tooltips.min.js"], "legend_at_bottom": false, "legend_at_bottom_columns": null, "legend_box_size": 12, "logarithmic": false, "margin": 20, "margin_bottom": null, "margin_left": null, "margin_right": null, "margin_top": null, "max_scale": 16, "min_scale": 4, "missing_value_fill_truncation": "x", "no_data_text": "No data", "no_prefix": false, "order_min": null, "pretty_print": false, "print_labels": false, "print_values": false, "print_values_position": "center", "print_zeroes": true, "range": [0, 100], "rounded_bars": null, "secondary_range": null, "show_dots": true, "show_legend": true, "show_minor_x_labels": true, "show_minor_y_labels": true, "show_only_major_dots": false, "show_x_guides": false, "show_x_labels": true, "show_y_guides": true, "show_y_labels": true, "spacing": 10, "stack_from_top": false, "strict": false, "stroke": true, "stroke_style": null, "style": {"background": "rgba(249, 249, 249, 1)", "ci_colors": [], "colors": ["#F44336", "#3F51B5", "#009688", "#FFC107", "#FF5722", "#9C27B0", "#03A9F4", "#8BC34A", "#FF9800", "#E91E63", "#2196F3", "#4CAF50", "#FFEB3B", "#673AB7", "#00BCD4", "#CDDC39", "#9E9E9E", "#607D8B"], "dot_opacity": "1", "font_family": "Consolas, \"Liberation Mono\", Menlo, Courier, monospace", "foreground": "rgba(0, 0, 0, .87)", "foreground_strong": "rgba(0, 0, 0, 1)", "foreground_subtle": "rgba(0, 0, 0, .54)", "guide_stroke_color": "black", "guide_stroke_dasharray": "4,4", "label_font_family": "Noto Sans CJK SC", "label_font_size": 10, "legend_font_family": "Noto Sans CJK SC", "legend_font_size": 14, "major_guide_stroke_color": "black", "major_guide_stroke_dasharray": "6,6", "major_label_font_family": "Noto Sans CJK SC", "major_label_font_size": 10, "no_data_font_family": "Consolas, \"Liberation Mono\", Menlo, Courier, monospace", "no_data_font_size": 64, "opacity": ".7", "opacity_hover": ".8", "plot_background": "rgba(255, 255, 255, 1)", "stroke_opacity": ".8", "stroke_opacity_hover": ".9", "stroke_width": "1", "stroke_width_hover": "4", "title_font_family": "Noto Sans CJK SC", "title_font_size": 16, "tooltip_font_family": "Consolas, \"Liberation Mono\", Menlo, Courier, monospace", "tooltip_font_size": 14, "transition": "150ms", "value_background": "rgba(229, 229, 229, 1)", "value_colors": [], "value_font_family": "Noto Sans CJK SC", "value_font_size": 16, "value_label_font_family": "Consolas, \"Liberation Mono\", Menlo, Courier, monospace", "value_label_font_size": 10}, "title": "\u4e3b\u9898: \u8def\u7531\u5668CPU\u5229\u7528\u7387", "tooltip_border_radius": 0, "tooltip_fancy_mode": true, "truncate_label": null, "truncate_legend": null, "width": 800, "x_label_rotation": 45, "x_labels": ["10:59:05", "11:00:04", "11:01:05", "11:02:04", "11:02:09", "11:03:04", "11:04:00", "11:04:03"], "x_labels_major": null, "x_labels_major_count": null, "x_labels_major_every": null, "x_title": null, "xrange": null, "y_label_rotation": 0, "y_labels": null, "y_labels_major": null, "y_labels_major_count": null, "y_labels_major_every": null, "y_title": null, "zero": 0, "legends": ["CPU\u5229\u7528\u7387"]}</script><script type="text/javascript" xlink:href="https://kozea.github.io/pygal.js/2.0.x/pygal-tooltips.min.js"/></defs><title>主题: 路由器CPU利用率</title><g class="graph line-graph vertical"><rect x="0" y="0" width="800" height="600" class="background"/><g transform="translate(120, 46)" class="plot"><rect x="0" y="0" width="645.6588745030457" height="490.05887450304573" class="background"/><g class="axis y always_show"><g class="guides"><path d="M0.000000 480.634665 h645.658875" class="axis major line"/><text x="-5" y="484.1346653779872" class="major">0</text><title>0</title></g><g class="guides"><path d="M0.000000 433.513620 h645.658875" class="guide line"/><text x="-5" y="437.0136197526943" class="">10</text><title>10</title></g><g class="guides"><path d="M0.000000 386.392574 h645.658875" class="guide line"/><text x="-5" y="389.8925741274014" class="">20</text><title>20</title></g><g class="guides"><path d="M0.000000 339.271529 h645.658875" class="guide line"/><text x="-5" y="342.7715285021086" class="">30</text><title>30</title></g><g class="guides"><path d="M0.000000 292.150483 h645.658875" class="guide line"/><text x="-5" y="295.6504828768158" class="">40</text><title>40</title></g><g class="guides"><path d="M0.000000 245.029437 h645.658875" class="major guide line"/><text x="-5" y="248.52943725152286" class="major">50</text><title>50</title></g><g class="guides"><path d="M0.000000 197.908392 h645.658875" class="guide line"/><text x="-5" y="201.40839162623" class="">60</text><title>60</title></g><g class="guides"><path d="M0.000000 150.787346 h645.658875" class="guide line"/><text x="-5" y="154.28734600093713" class="">70</text><title>70</title></g><g class="guides"><path d="M0.000000 103.666300 h645.658875" class="guide line"/><text x="-5" y="107.16630037564425" class="">80</text><title>80</title></g><g class="guides"><path d="M0.000000 56.545255 h645.658875" class="guide line"/><text x="-5" y="60.045254750351376" class="">90</text><title>90</title></g><g class="guides"><path d="M0.000000 9.424209 h645.658875" class="major guide line"/><text x="-5" y="12.92420912505861" class="major">100</text><title>100</title></g></g><g class="axis x"><g class="guides"><path d="M12.416517 0.000000 v490.058875" class="line"/><text x="12.416516817366263" y="505.05887450304573" class="" transform="rotate(45 12.416517 505.058875)">10:59:05</text></g><g class="guides"><path d="M101.105923 0.000000 v490.058875" class="guide line"/><text x="101.1059226556967" y="505.05887450304573" class="" transform="rotate(45 101.105923 505.058875)">11:00:04</text></g><g class="guides"><path d="M189.795328 0.000000 v490.058875" class="guide line"/><text x="189.79532849402716" y="505.05887450304573" class="" transform="rotate(45 189.795328 505.058875)">11:01:05</text></g><g class="guides"><path d="M278.484734 0.000000 v490.058875" class="guide line"/><text x="278.4847343323576" y="505.05887450304573" class="" transform="rotate(45 278.484734 505.058875)">11:02:04</text></g><g class="guides"><path d="M367.174140 0.000000 v490.058875" class="guide line"/><text x="367.1741401706881" y="505.05887450304573" class="" transform="rotate(45 367.174140 505.058875)">11:02:09</text></g><g class="guides"><path d="M455.863546 0.000000 v490.058875" class="guide line"/><text x="455.86354600901853" y="505.05887450304573" class="" transform="rotate(45 455.863546 505.058875)">11:03:04</text></g><g class="guides"><path d="M544.552952 0.000000 v490.058875" class="guide line"/><text x="544.5529518473489" y="505.05887450304573" class="" transform="rotate(45 544.552952 505.058875)">11:04:00</text></g><g class="guides"><path d="M633.242358 0.000000 v490.058875" class="guide line"/><text x="633.2423576856794" y="505.05887450304573" class="" transform="rotate(45 633.242358 505.058875)">11:04:03</text></g></g><g class="series serie-0 color-0"><path d="M12.416517 395.816783 L12.771274 395.841265 13.126032 395.865746 13.480790 395.890226 13.835547 395.914704 14.190305 395.939180 14.545063 395.963653 14.899820 395.988123 15.254578 396.012590 15.609335 396.037052 15.964093 396.061509 16.318851 396.085961 16.673608 396.110406 17.028366 396.134846 17.383124 396.159278 17.737881 396.183703 18.092639 396.208119 18.447396 396.232527 18.802154 396.256926 19.156912 396.281315 19.511669 396.305694 19.866427 396.330062 20.221185 396.354418 20.575942 396.378763 20.930700 396.403095 21.285457 396.427414 21.640215 396.451720 21.994973 396.476012 22.349730 396.500289 22.704488 396.524551 23.059246 396.548797 23.414003 396.573027 23.768761 396.597240 24.123518 396.621436 24.478276 396.645614 24.833034 396.669774 25.187791 396.693915 25.542549 396.718036 25.897307 396.742138 26.252064 396.766218 26.606822 396.790278 26.961579 396.814316 27.316337 396.838332 27.671095 396.862325 28.025852 396.886295 28.380610 396.910241 28.735367 396.934163 29.090125 396.958060 29.444883 396.981931 29.799640 397.005777 30.154398 397.029596 30.509156 397.053388 30.863913 397.077152 31.218671 397.100888 31.573428 397.124596 31.928186 397.148274 32.282944 397.171923 32.637701 397.195542 32.992459 397.219129 33.347217 397.242685 33.701974 397.266210 34.056732 397.289702 34.411489 397.313160 34.766247 397.336586 35.121005 397.359977 35.475762 397.383334 35.830520 397.406655 36.185278 397.429941 36.540035 397.453191 36.894793 397.476403 37.249550 397.499579 37.604308 397.522716 37.959066 397.545816 38.313823 397.568876 38.668581 397.591897 39.023339 397.614878 39.378096 397.637818 39.732854 397.660717 40.087611 397.683575 40.442369 397.706390 40.797127 397.729163 41.151884 397.751892 41.506642 397.774577 41.861400 397.797219 42.216157 397.819815 42.570915 397.842366 42.925672 397.864871 43.280430 397.887329 43.635188 397.909741 43.989945 397.932104 44.344703 397.954420 44.699461 397.976687 45.054218 397.998905 45.408976 398.021073 45.763733 398.043190 46.118491 398.065257 46.473249 398.087273 46.828006 398.109236 47.182764 398.131148 47.537522 398.153006 47.892279 398.174810 48.247037 398.196561 48.601794 398.218257 48.956552 398.239898 49.311310 398.261483 49.666067 398.283011 50.020825 398.304483 50.375583 398.325898 50.730340 398.347255 51.085098 398.368553 51.439855 398.389793 51.794613 398.410973 52.149371 398.432093 52.504128 398.453152 52.858886 398.474151 53.213644 398.495087 53.568401 398.515962 53.923159 398.536773 54.277916 398.557522 54.632674 398.578207 54.987432 398.598827 55.342189 398.619382 55.696947 398.639872 56.051704 398.660296 56.406462 398.680654 56.761220 398.700944 57.115977 398.721167 57.470735 398.741322 57.825493 398.761408 58.180250 398.781424 58.535008 398.801371 58.889765 398.821248 59.244523 398.841054 59.599281 398.860789 59.954038 398.880451 60.308796 398.900041 60.663554 398.919558 61.018311 398.939002 61.373069 398.958371 61.727826 398.977666 62.082584 398.996886 62.437342 399.016030 62.792099 399.035097 63.146857 399.054088 63.501615 399.073002 63.856372 399.091838 64.211130 399.110595 64.565887 399.129273 64.920645 399.147872 65.275403 399.166391 65.630160 399.184829 65.984918 399.203186 66.339676 399.221462 66.694433 399.239655 67.049191 399.257766 67.403948 399.275793 67.758706 399.293736 68.113464 399.311595 68.468221 399.329369 68.822979 399.347058 69.177737 399.364661 69.532494 399.382177 69.887252 399.399606 70.242009 399.416948 70.596767 399.434201 70.951525 399.451366 71.306282 399.468441 71.661040 399.485427 72.015798 399.502322 72.370555 399.519127 72.725313 399.535840 73.080070 399.552461 73.434828 399.568990 73.789586 399.585426 74.144343 399.601768 74.499101 399.618016 74.853859 399.634169 75.208616 399.650227 75.563374 399.666190 75.918131 399.682056 76.272889 399.697826 76.627647 399.713498 76.982404 399.729072 77.337162 399.744548 77.691920 399.759925 78.046677 399.775202 78.401435 399.790379 78.756192 399.805456 79.110950 399.820432 79.465708 399.835306 79.820465 399.850077 80.175223 399.864746 80.529981 399.879312 80.884738 399.893774 81.239496 399.908131 81.594253 399.922384 81.949011 399.936531 82.303769 399.950572 82.658526 399.964507 83.013284 399.978334 83.368041 399.992054 83.722799 400.005666 84.077557 400.019169 84.432314 400.032563 84.787072 400.045847 85.141830 400.059021 85.496587 400.072083 85.851345 400.085035 86.206102 400.097874 86.560860 400.110601 86.915618 400.123215 87.270375 400.135716 87.625133 400.148102 87.979891 400.160374 88.334648 400.172530 88.689406 400.184571 89.044163 400.196496 89.398921 400.208303 89.753679 400.219994 90.108436 400.231566 90.463194 400.243020 90.817952 400.254355 91.172709 400.265571 91.527467 400.276666 91.882224 400.287641 92.236982 400.298495 92.591740 400.309227 92.946497 400.319837 93.301255 400.330324 93.656013 400.340688 94.010770 400.350928 94.365528 400.361043 94.720285 400.371034 95.075043 400.380899 95.429801 400.390638 95.784558 400.400251 96.139316 400.409737 96.494074 400.419094 96.848831 400.428324 97.203589 400.437425 97.558346 400.446397 97.913104 400.455239 98.267862 400.463951 98.622619 400.472532 98.977377 400.480981 99.332135 400.489299 99.686892 400.497484 100.041650 400.505536 100.396407 400.513454 100.751165 400.521238 101.105923 400.528888 101.460680 400.536402 101.815438 400.543783 102.170196 400.551030 102.524953 400.558144 102.879711 400.565127 103.234468 400.571979 103.589226 400.578701 103.943984 400.585295 104.298741 400.591760 104.653499 400.598098 105.008257 400.604310 105.363014 400.610397 105.717772 400.616359 106.072529 400.622197 106.427287 400.627913 106.782045 400.633507 107.136802 400.638980 107.491560 400.644333 107.846317 400.649567 108.201075 400.654683 108.555833 400.659682 108.910590 400.664564 109.265348 400.669331 109.620106 400.673983 109.974863 400.678521 110.329621 400.682946 110.684378 400.687260 111.039136 400.691462 111.393894 400.695555 111.748651 400.699538 112.103409 400.703413 112.458167 400.707180 112.812924 400.710840 113.167682 400.714395 113.522439 400.717846 113.877197 400.721192 114.231955 400.724435 114.586712 400.727577 114.941470 400.730617 115.296228 400.733556 115.650985 400.736397 116.005743 400.739138 116.360500 400.741782 116.715258 400.744330 117.070016 400.746781 117.424773 400.749138 117.779531 400.751401 118.134289 400.753570 118.489046 400.755647 118.843804 400.757633 119.198561 400.759528 119.553319 400.761334 119.908077 400.763051 120.262834 400.764680 120.617592 400.766223 120.972350 400.767679 121.327107 400.769050 121.681865 400.770337 122.036622 400.771541 122.391380 400.772662 122.746138 400.773702 123.100895 400.774661 123.455653 400.775541 123.810411 400.776341 124.165168 400.777064 124.519926 400.777709 124.874683 400.778279 125.229441 400.778773 125.584199 400.779193 125.938956 400.779539 126.293714 400.779813 126.648472 400.780015 127.003229 400.780146 127.357987 400.780207 127.712744 400.780200 128.067502 400.780124 128.422260 400.779981 128.777017 400.779771 129.131775 400.779497 129.486533 400.779157 129.841290 400.778754 130.196048 400.778289 130.550805 400.777761 130.905563 400.777173 131.260321 400.776524 131.615078 400.775816 131.969836 400.775050 132.324594 400.774227 132.679351 400.773347 133.034109 400.772412 133.388866 400.771422 133.743624 400.770378 134.098382 400.769281 134.453139 400.768132 134.807897 400.766932 135.162654 400.765682 135.517412 400.764382 135.872170 400.763035 136.226927 400.761639 136.581685 400.760197 136.936443 400.758709 137.291200 400.757176 137.645958 400.755600 138.000715 400.753980 138.355473 400.752318 138.710231 400.750615 139.064988 400.748871 139.419746 400.747088 139.774504 400.745267 140.129261 400.743407 140.484019 400.741511 140.838776 400.739579 141.193534 400.737612 141.548292 400.735611 141.903049 400.733576 142.257807 400.731509 142.612565 400.729411 142.967322 400.727283 143.322080 400.725124 143.676837 400.722937 144.031595 400.720722 144.386353 400.718480 144.741110 400.716212 145.095868 400.713919 145.450626 400.711601 145.805383 400.709260 146.160141 400.706897 146.514898 400.704512 146.869656 400.702106 147.224414 400.699681 147.579171 400.697236 147.933929 400.694774 148.288687 400.692294 148.643444 400.689799 148.998202 400.687288 149.352959 400.684762 149.707717 400.682223 150.062475 400.679671 150.417232 400.677108 150.771990 400.674533 151.126748 400.671949 151.481505 400.669355 151.836263 400.666754 152.191020 400.664145 152.545778 400.661530 152.900536 400.658909 153.255293 400.656283 153.610051 400.653654 153.964809 400.651022 154.319566 400.648388 154.674324 400.645754 155.029081 400.643119 155.383839 400.640484 155.738597 400.637852 156.093354 400.635222 156.448112 400.632595 156.802870 400.629973 157.157627 400.627356 157.512385 400.624745 157.867142 400.622141 158.221900 400.619545 158.576658 400.616958 158.931415 400.614381 159.286173 400.611814 159.640931 400.609259 159.995688 400.606716 160.350446 400.604186 160.705203 400.601671 161.059961 400.599170 161.414719 400.596686 161.769476 400.594218 162.124234 400.591769 162.478991 400.589337 162.833749 400.586926 163.188507 400.584535 163.543264 400.582165 163.898022 400.579817 164.252780 400.577493 164.607537 400.575192 164.962295 400.572917 165.317052 400.570667 165.671810 400.568444 166.026568 400.566249 166.381325 400.564082 166.736083 400.561944 167.090841 400.559837 167.445598 400.557761 167.800356 400.555717 168.155113 400.553706 168.509871 400.551729 168.864629 400.549786 169.219386 400.547880 169.574144 400.546009 169.928902 400.544176 170.283659 400.542382 170.638417 400.540627 170.993174 400.538912 171.347932 400.537238 171.702690 400.535605 172.057447 400.534016 172.412205 400.532470 172.766963 400.530969 173.121720 400.529513 173.476478 400.528104 173.831235 400.526742 174.185993 400.525428 174.540751 400.524164 174.895508 400.522949 175.250266 400.521785 175.605024 400.520673 175.959781 400.519613 176.314539 400.518607 176.669296 400.517656 177.024054 400.516760 177.378812 400.515920 177.733569 400.515137 178.088327 400.514412 178.443085 400.513746 178.797842 400.513140 179.152600 400.512594 179.507357 400.512110 179.862115 400.511689 180.216873 400.511331 180.571630 400.511037 180.926388 400.510808 181.281146 400.510646 181.635903 400.510550 181.990661 400.510522 182.345418 400.510563 182.700176 400.510674 183.054934 400.510855 183.409691 400.511108 183.764449 400.511433 184.119207 400.511831 184.473964 400.512303 184.828722 400.512850 185.183479 400.513473 185.538237 400.514173 185.892995 400.514951 186.247752 400.515807 186.602510 400.516743 186.957268 400.517759 187.312025 400.518856 187.666783 400.520036 188.021540 400.521298 188.376298 400.522645 188.731056 400.524076 189.085813 400.525593 189.440571 400.527197 189.795328 400.528888 190.150086 400.530667 190.504844 400.532534 190.859601 400.534486 191.214359 400.536523 191.569117 400.538644 191.923874 400.540847 192.278632 400.543131 192.633389 400.545495 192.988147 400.547937 193.342905 400.550457 193.697662 400.553053 194.052420 400.555724 194.407178 400.558468 194.761935 400.561285 195.116693 400.564174 195.471450 400.567132 195.826208 400.570159 196.180966 400.573254 196.535723 400.576415 196.890481 400.579641 197.245239 400.582931 197.599996 400.586283 197.954754 400.589697 198.309511 400.593171 198.664269 400.596704 199.019027 400.600295 199.373784 400.603942 199.728542 400.607645 200.083300 400.611402 200.438057 400.615211 200.792815 400.619072 201.147572 400.622984 201.502330 400.626944 201.857088 400.630953 202.211845 400.635008 202.566603 400.639108 202.921361 400.643253 203.276118 400.647441 203.630876 400.651671 203.985633 400.655941 204.340391 400.660250 204.695149 400.664598 205.049906 400.668982 205.404664 400.673402 205.759422 400.677857 206.114179 400.682344 206.468937 400.686864 206.823694 400.691414 207.178452 400.695994 207.533210 400.700602 207.887967 400.705237 208.242725 400.709898 208.597483 400.714584 208.952240 400.719292 209.306998 400.724023 209.661755 400.728775 210.016513 400.733547 210.371271 400.738337 210.726028 400.743144 211.080786 400.747967 211.435544 400.752805 211.790301 400.757657 212.145059 400.762520 212.499816 400.767395 212.854574 400.772280 213.209332 400.777173 213.564089 400.782074 213.918847 400.786981 214.273605 400.791893 214.628362 400.796809 214.983120 400.801727 215.337877 400.806646 215.692635 400.811565 216.047393 400.816484 216.402150 400.821399 216.756908 400.826311 217.111665 400.831219 217.466423 400.836120 217.821181 400.841013 218.175938 400.845899 218.530696 400.850774 218.885454 400.855638 219.240211 400.860491 219.594969 400.865329 219.949726 400.870153 220.304484 400.874961 220.659242 400.879752 221.013999 400.884525 221.368757 400.889278 221.723515 400.894010 222.078272 400.898720 222.433030 400.903406 222.787787 400.908069 223.142545 400.912705 223.497303 400.917314 223.852060 400.921896 224.206818 400.926448 224.561576 400.930969 224.916333 400.935458 225.271091 400.939914 225.625848 400.944336 225.980606 400.948722 226.335364 400.953072 226.690121 400.957383 227.044879 400.961655 227.399637 400.965887 227.754394 400.970077 228.109152 400.974224 228.463909 400.978327 228.818667 400.982384 229.173425 400.986395 229.528182 400.990358 229.882940 400.994272 230.237698 400.998136 230.592455 401.001948 230.947213 401.005707 231.301970 401.009413 231.656728 401.013063 232.011486 401.016656 232.366243 401.020192 232.721001 401.023670 233.075759 401.027087 233.430516 401.030442 233.785274 401.033735 234.140031 401.036965 234.494789 401.040129 234.849547 401.043227 235.204304 401.046257 235.559062 401.049219 235.913820 401.052111 236.268577 401.054932 236.623335 401.057680 236.978092 401.060355 237.332850 401.062954 237.687608 401.065478 238.042365 401.067925 238.397123 401.070292 238.751881 401.072581 239.106638 401.074788 239.461396 401.076913 239.816153 401.078954 240.170911 401.080911 240.525669 401.082782 240.880426 401.084565 241.235184 401.086261 241.589942 401.087866 241.944699 401.089381 242.299457 401.090804 242.654214 401.092134 243.008972 401.093369 243.363730 401.094509 243.718487 401.095551 244.073245 401.096495 244.428002 401.097340 244.782760 401.098084 245.137518 401.098727 245.492275 401.099266 245.847033 401.099701 246.201791 401.100031 246.556548 401.100253 246.911306 401.100368 247.266063 401.100373 247.620821 401.100268 247.975579 401.100052 248.330336 401.099722 248.685094 401.099278 249.039852 401.098719 249.394609 401.098043 249.749367 401.097250 250.104124 401.096337 250.458882 401.095304 250.813640 401.094150 251.168397 401.092873 251.523155 401.091472 251.877913 401.089946 252.232670 401.088293 252.587428 401.086513 252.942185 401.084603 253.296943 401.082564 253.651701 401.080393 254.006458 401.078090 254.361216 401.075653 254.715974 401.073081 255.070731 401.070373 255.425489 401.067528 255.780246 401.064543 256.135004 401.061419 256.489762 401.058153 256.844519 401.054746 257.199277 401.051194 257.554035 401.047498 257.908792 401.043656 258.263550 401.039666 258.618307 401.035528 258.973065 401.031240 259.327823 401.026801 259.682580 401.022210 260.037338 401.017466 260.392096 401.012567 260.746853 401.007512 261.101611 401.002300 261.456368 400.996930 261.811126 400.991400 262.165884 400.985709 262.520641 400.979856 262.875399 400.973840 263.230157 400.967660 263.584914 400.961313 263.939672 400.954800 264.294429 400.948119 264.649187 400.941268 265.003945 400.934247 265.358702 400.927054 265.713460 400.919688 266.068218 400.912148 266.422975 400.904432 266.777733 400.896539 267.132490 400.888468 267.487248 400.880218 267.842006 400.871788 268.196763 400.863176 268.551521 400.854381 268.906279 400.845402 269.261036 400.836238 269.615794 400.826887 269.970551 400.817348 270.325309 400.807620 270.680067 400.797702 271.034824 400.787593 271.389582 400.777291 271.744339 400.766795 272.099097 400.756103 272.453855 400.745216 272.808612 400.734130 273.163370 400.722846 273.518128 400.711362 273.872885 400.699676 274.227643 400.687788 274.582400 400.675697 274.937158 400.663400 275.291916 400.650897 275.646673 400.638186 276.001431 400.625267 276.356189 400.612138 276.710946 400.598798 277.065704 400.585246 277.420461 400.571480 277.775219 400.557499 278.129977 400.543302 278.484734 400.528888 278.839492 400.514256 279.194250 400.499407 279.549007 400.484345 279.903765 400.469071 280.258522 400.453587 280.613280 400.437895 280.968038 400.421999 281.322795 400.405899 281.677553 400.389598 282.032311 400.373099 282.387068 400.356404 282.741826 400.339514 283.096583 400.322432 283.451341 400.305160 283.806099 400.287701 284.160856 400.270057 284.515614 400.252229 284.870372 400.234220 285.225129 400.216033 285.579887 400.197668 285.934644 400.179130 286.289402 400.160419 286.644160 400.141539 286.998917 400.122491 287.353675 400.103277 287.708433 400.083900 288.063190 400.064361 288.417948 400.044664 288.772705 400.024810 289.127463 400.004802 289.482221 399.984641 289.836978 399.964331 290.191736 399.943872 290.546494 399.923268 290.901251 399.902520 291.256009 399.881631 291.610766 399.860603 291.965524 399.839438 292.320282 399.818139 292.675039 399.796707 293.029797 399.775145 293.384555 399.753454 293.739312 399.731638 294.094070 399.709699 294.448827 399.687638 294.803585 399.665458 295.158343 399.643160 295.513100 399.620748 295.867858 399.598224 296.222616 399.575589 296.577373 399.552846 296.932131 399.529997 297.286888 399.507044 297.641646 399.483990 297.996404 399.460836 298.351161 399.437586 298.705919 399.414240 299.060676 399.390802 299.415434 399.367273 299.770192 399.343656 300.124949 399.319953 300.479707 399.296165 300.834465 399.272297 301.189222 399.248348 301.543980 399.224323 301.898737 399.200222 302.253495 399.176049 302.608253 399.151805 302.963010 399.127492 303.317768 399.103113 303.672526 399.078671 304.027283 399.054166 304.382041 399.029602 304.736798 399.004980 305.091556 398.980303 305.446314 398.955574 305.801071 398.930793 306.155829 398.905964 306.510587 398.881088 306.865344 398.856169 307.220102 398.831207 307.574859 398.806206 307.929617 398.781167 308.284375 398.756092 308.639132 398.730985 308.993890 398.705847 309.348648 398.680680 309.703405 398.655486 310.058163 398.630268 310.412920 398.605028 310.767678 398.579768 311.122436 398.554491 311.477193 398.529198 311.831951 398.503892 312.186709 398.478574 312.541466 398.453248 312.896224 398.427915 313.250981 398.402578 313.605739 398.377238 313.960497 398.351899 314.315254 398.326561 314.670012 398.301228 315.024770 398.275902 315.379527 398.250584 315.734285 398.225278 316.089042 398.199984 316.443800 398.174706 316.798558 398.149446 317.153315 398.124205 317.508073 398.098987 317.862831 398.073792 318.217588 398.048625 318.572346 398.023485 318.927103 397.998377 319.281861 397.973302 319.636619 397.948262 319.991376 397.923259 320.346134 397.898297 320.700892 397.873376 321.055649 397.848499 321.410407 397.823669 321.765164 397.798887 322.119922 397.774155 322.474680 397.749477 322.829437 397.724854 323.184195 397.700288 323.538952 397.675782 323.893710 397.651337 324.248468 397.626956 324.603225 397.602642 324.957983 397.578396 325.312741 397.554221 325.667498 397.530118 326.022256 397.506090 326.377013 397.482140 326.731771 397.458269 327.086529 397.434479 327.441286 397.410774 327.796044 397.387154 328.150802 397.363623 328.505559 397.340182 328.860317 397.316833 329.215074 397.293580 329.569832 397.270424 329.924590 397.247367 330.279347 397.224411 330.634105 397.201559 330.988863 397.178813 331.343620 397.156175 331.698378 397.133647 332.053135 397.111232 332.407893 397.088932 332.762651 397.066748 333.117408 397.044684 333.472166 397.022741 333.826924 397.000921 334.181681 396.979228 334.536439 396.957662 334.891196 396.936226 335.245954 396.914923 335.600712 396.893754 335.955469 396.872722 336.310227 396.851829 336.664985 396.831077 337.019742 396.810469 337.374500 396.790006 337.729257 396.769691 338.084015 396.749527 338.438773 396.729514 338.793530 396.709656 339.148288 396.689954 339.503046 396.670411 339.857803 396.651030 340.212561 396.631811 340.567318 396.612758 340.922076 396.593873 341.276834 396.575158 341.631591 396.556614 341.986349 396.538245 342.341107 396.520053 342.695864 396.502039 343.050622 396.484206 343.405379 396.466556 343.760137 396.449092 344.114895 396.431815 344.469652 396.414728 344.824410 396.397832 345.179168 396.381131 345.533925 396.364626 345.888683 396.348320 346.243440 396.332215 346.598198 396.316313 346.952956 396.300615 347.307713 396.285125 347.662471 396.269845 348.017229 396.254777 348.371986 396.239922 348.726744 396.225284 349.081501 396.210864 349.436259 396.196665 349.791017 396.182689 350.145774 396.168938 350.500532 396.155414 350.855289 396.142119 351.210047 396.129056 351.564805 396.116227 351.919562 396.103635 352.274320 396.091280 352.629078 396.079166 352.983835 396.067294 353.338593 396.055668 353.693350 396.044288 354.048108 396.033158 354.402866 396.022280 354.757623 396.011655 355.112381 396.001286 355.467139 395.991175 355.821896 395.981325 356.176654 395.971737 356.531411 395.962414 356.886169 395.953358 357.240927 395.944571 357.595684 395.936055 357.950442 395.927814 358.305200 395.919847 358.659957 395.912159 359.014715 395.904751 359.369472 395.897626 359.724230 395.890785 360.078988 395.884231 360.433745 395.877966 360.788503 395.871992 361.143261 395.866312 361.498018 395.860927 361.852776 395.855840 362.207533 395.851054 362.562291 395.846569 362.917049 395.842389 363.271806 395.838516 363.626564 395.834952 363.981322 395.831699 364.336079 395.828759 364.690837 395.826134 365.045594 395.823828 365.400352 395.821841 365.755110 395.820176 366.109867 395.818836 366.464625 395.817822 366.819383 395.817137 367.174140 395.816783 367.528898 395.816762 367.883655 395.817071 368.238413 395.817709 368.593171 395.818674 368.947928 395.819964 369.302686 395.821576 369.657444 395.823507 370.012201 395.825757 370.366959 395.828323 370.721716 395.831202 371.076474 395.834393 371.431232 395.837893 371.785989 395.841700 372.140747 395.845813 372.495505 395.850228 372.850262 395.854943 373.205020 395.859957 373.559777 395.865267 373.914535 395.870872 374.269293 395.876768 374.624050 395.882954 374.978808 395.889428 375.333566 395.896187 375.688323 395.903229 376.043081 395.910553 376.397838 395.918155 376.752596 395.926034 377.107354 395.934188 377.462111 395.942614 377.816869 395.951310 378.171626 395.960274 378.526384 395.969504 378.881142 395.978998 379.235899 395.988754 379.590657 395.998769 379.945415 396.009041 380.300172 396.019568 380.654930 396.030347 381.009687 396.041378 381.364445 396.052657 381.719203 396.064183 382.073960 396.075952 382.428718 396.087964 382.783476 396.100215 383.138233 396.112704 383.492991 396.125429 383.847748 396.138387 384.202506 396.151576 384.557264 396.164994 384.912021 396.178639 385.266779 396.192509 385.621537 396.206601 385.976294 396.220913 386.331052 396.235444 386.685809 396.250190 387.040567 396.265150 387.395325 396.280322 387.750082 396.295703 388.104840 396.311292 388.459598 396.327086 388.814355 396.343082 389.169113 396.359280 389.523870 396.375675 389.878628 396.392268 390.233386 396.409055 390.588143 396.426033 390.942901 396.443202 391.297659 396.460558 391.652416 396.478100 392.007174 396.495826 392.361931 396.513732 392.716689 396.531818 393.071447 396.550080 393.426204 396.568518 393.780962 396.587127 394.135720 396.605908 394.490477 396.624856 394.845235 396.643970 395.199992 396.663249 395.554750 396.682689 395.909508 396.702288 396.264265 396.722045 396.619023 396.741957 396.973781 396.762022 397.328538 396.782238 397.683296 396.802603 398.038053 396.823114 398.392811 396.843769 398.747569 396.864567 399.102326 396.885504 399.457084 396.906580 399.811842 396.927791 400.166599 396.949135 400.521357 396.970611 400.876114 396.992216 401.230872 397.013948 401.585630 397.035804 401.940387 397.057784 402.295145 397.079884 402.649903 397.102102 403.004660 397.124436 403.359418 397.146884 403.714175 397.169444 404.068933 397.192113 404.423691 397.214890 404.778448 397.237772 405.133206 397.260758 405.487963 397.283844 405.842721 397.307029 406.197479 397.330310 406.552236 397.353686 406.906994 397.377154 407.261752 397.400713 407.616509 397.424359 407.971267 397.448091 408.326024 397.471906 408.680782 397.495803 409.035540 397.519779 409.390297 397.543832 409.745055 397.567960 410.099813 397.592160 410.454570 397.616432 410.809328 397.640771 411.164085 397.665177 411.518843 397.689647 411.873601 397.714178 412.228358 397.738769 412.583116 397.763418 412.937874 397.788122 413.292631 397.812879 413.647389 397.837688 414.002146 397.862545 414.356904 397.887448 414.711662 397.912397 415.066419 397.937387 415.421177 397.962418 415.775935 397.987486 416.130692 398.012591 416.485450 398.037729 416.840207 398.062899 417.194965 398.088097 417.549723 398.113323 417.904480 398.138574 418.259238 398.163848 418.613996 398.189142 418.968753 398.214455 419.323511 398.239784 419.678268 398.265127 420.033026 398.290482 420.387784 398.315847 420.742541 398.341219 421.097299 398.366597 421.452057 398.391978 421.806814 398.417360 422.161572 398.442741 422.516329 398.468118 422.871087 398.493491 423.225845 398.518855 423.580602 398.544210 423.935360 398.569553 424.290118 398.594882 424.644875 398.620194 424.999633 398.645488 425.354390 398.670762 425.709148 398.696012 426.063906 398.721238 426.418663 398.746436 426.773421 398.771605 427.128179 398.796743 427.482936 398.821847 427.837694 398.846915 428.192451 398.871945 428.547209 398.896935 428.901967 398.921883 429.256724 398.946786 429.611482 398.971643 429.966240 398.996450 430.320997 399.021207 430.675755 399.045910 431.030512 399.070558 431.385270 399.095149 431.740028 399.119680 432.094785 399.144149 432.449543 399.168553 432.804300 399.192892 433.159058 399.217162 433.513816 399.241362 433.868573 399.265489 434.223331 399.289541 434.578089 399.313516 434.932846 399.337412 435.287604 399.361226 435.642361 399.384957 435.997119 399.408602 436.351877 399.432159 436.706634 399.455626 437.061392 399.479001 437.416150 399.502281 437.770907 399.525465 438.125665 399.548550 438.480422 399.571534 438.835180 399.594415 439.189938 399.617190 439.544695 399.639859 439.899453 399.662417 440.254211 399.684864 440.608968 399.707196 440.963726 399.729413 441.318483 399.751511 441.673241 399.773489 442.027999 399.795344 442.382756 399.817075 442.737514 399.838678 443.092272 399.860152 443.447029 399.881495 443.801787 399.902704 444.156544 399.923778 444.511302 399.944714 444.866060 399.965509 445.220817 399.986163 445.575575 400.006672 445.930333 400.027035 446.285090 400.047249 446.639848 400.067312 446.994605 400.087222 447.349363 400.106977 447.704121 400.126575 448.058878 400.146013 448.413636 400.165289 448.768394 400.184401 449.123151 400.203348 449.477909 400.222126 449.832666 400.240733 450.187424 400.259168 450.542182 400.277429 450.896939 400.295512 451.251697 400.313416 451.606455 400.331139 451.961212 400.348679 452.315970 400.366033 452.670727 400.383199 453.025485 400.400176 453.380243 400.416960 453.735000 400.433550 454.089758 400.449943 454.444516 400.466138 454.799273 400.482132 455.154031 400.497923 455.508788 400.513509 455.863546 400.528888 456.218304 400.544058 456.573061 400.559019 456.927819 400.573773 457.282577 400.588320 457.637334 400.602663 457.992092 400.616801 458.346849 400.630735 458.701607 400.644468 459.056365 400.658000 459.411122 400.671331 459.765880 400.684464 460.120637 400.697399 460.475395 400.710136 460.830153 400.722678 461.184910 400.735025 461.539668 400.747178 461.894426 400.759139 462.249183 400.770908 462.603941 400.782486 462.958698 400.793875 463.313456 400.805075 463.668214 400.816088 464.022971 400.826914 464.377729 400.837555 464.732487 400.848011 465.087244 400.858284 465.442002 400.868375 465.796759 400.878285 466.151517 400.888015 466.506275 400.897565 466.861032 400.906938 467.215790 400.916133 467.570548 400.925153 467.925305 400.933997 468.280063 400.942668 468.634820 400.951166 468.989578 400.959492 469.344336 400.967647 469.699093 400.975633 470.053851 400.983450 470.408609 400.991100 470.763366 400.998583 471.118124 401.005900 471.472881 401.013053 471.827639 401.020043 472.182397 401.026870 472.537154 401.033536 472.891912 401.040042 473.246670 401.046389 473.601427 401.052577 473.956185 401.058609 474.310942 401.064484 474.665700 401.070204 475.020458 401.075770 475.375215 401.081184 475.729973 401.086445 476.084731 401.091556 476.439488 401.096517 476.794246 401.101329 477.149003 401.105994 477.503761 401.110511 477.858519 401.114884 478.213276 401.119112 478.568034 401.123196 478.922792 401.127138 479.277549 401.130938 479.632307 401.134598 479.987064 401.138119 480.341822 401.141501 480.696580 401.144747 481.051337 401.147856 481.406095 401.150830 481.760853 401.153670 482.115610 401.156377 482.470368 401.158952 482.825125 401.161396 483.179883 401.163710 483.534641 401.165895 483.889398 401.167953 484.244156 401.169884 484.598914 401.171689 484.953671 401.173369 485.308429 401.174926 485.663186 401.176361 486.017944 401.177674 486.372702 401.178866 486.727459 401.179939 487.082217 401.180894 487.436974 401.181731 487.791732 401.182452 488.146490 401.183058 488.501247 401.183550 488.856005 401.183929 489.210763 401.184195 489.565520 401.184351 489.920278 401.184396 490.275035 401.184333 490.629793 401.184162 490.984551 401.183884 491.339308 401.183500 491.694066 401.183011 492.048824 401.182419 492.403581 401.181724 492.758339 401.180927 493.113096 401.180030 493.467854 401.179034 493.822612 401.177939 494.177369 401.176746 494.532127 401.175457 494.886885 401.174073 495.241642 401.172595 495.596400 401.171023 495.951157 401.169360 496.305915 401.167605 496.660673 401.165760 497.015430 401.163826 497.370188 401.161804 497.724946 401.159695 498.079703 401.157500 498.434461 401.155220 498.789218 401.152857 499.143976 401.150411 499.498734 401.147883 499.853491 401.145275 500.208249 401.142586 500.563007 401.139820 500.917764 401.136976 501.272522 401.134055 501.627279 401.131059 501.982037 401.127989 502.336795 401.124845 502.691552 401.121629 503.046310 401.118342 503.401068 401.114984 503.755825 401.111558 504.110583 401.108063 504.465340 401.104502 504.820098 401.100874 505.174856 401.097181 505.529613 401.093425 505.884371 401.089606 506.239129 401.085725 506.593886 401.081783 506.948644 401.077781 507.303401 401.073721 507.658159 401.069603 508.012917 401.065429 508.367674 401.061199 508.722432 401.056915 509.077190 401.052577 509.431947 401.048187 509.786705 401.043746 510.141462 401.039254 510.496220 401.034713 510.850978 401.030124 511.205735 401.025488 511.560493 401.020806 511.915250 401.016078 512.270008 401.011307 512.624766 401.006493 512.979523 401.001636 513.334281 400.996739 513.689039 400.991803 514.043796 400.986827 514.398554 400.981814 514.753311 400.976764 515.108069 400.971678 515.462827 400.966558 515.817584 400.961405 516.172342 400.956218 516.527100 400.951001 516.881857 400.945753 517.236615 400.940476 517.591372 400.935170 517.946130 400.929838 518.300888 400.924479 518.655645 400.919095 519.010403 400.913686 519.365161 400.908255 519.719918 400.902802 520.074676 400.897328 520.429433 400.891834 520.784191 400.886321 521.138949 400.880790 521.493706 400.875243 521.848464 400.869680 522.203222 400.864102 522.557979 400.858511 522.912737 400.852907 523.267494 400.847291 523.622252 400.841665 523.977010 400.836030 524.331767 400.830386 524.686525 400.824735 525.041283 400.819077 525.396040 400.813415 525.750798 400.807748 526.105555 400.802078 526.460313 400.796406 526.815071 400.790733 527.169828 400.785059 527.524586 400.779387 527.879344 400.773717 528.234101 400.768051 528.588859 400.762388 528.943616 400.756730 529.298374 400.751079 529.653132 400.745436 530.007889 400.739800 530.362647 400.734174 530.717405 400.728559 531.072162 400.722955 531.426920 400.717363 531.781677 400.711785 532.136435 400.706222 532.491193 400.700675 532.845950 400.695144 533.200708 400.689631 533.555466 400.684137 533.910223 400.678663 534.264981 400.673210 534.619738 400.667779 534.974496 400.662371 535.329254 400.656986 535.684011 400.651628 536.038769 400.646295 536.393527 400.640989 536.748284 400.635712 537.103042 400.630464 537.457799 400.625247 537.812557 400.620061 538.167315 400.614907 538.522072 400.609787 538.876830 400.604701 539.231587 400.599651 539.586345 400.594638 539.941103 400.589663 540.295860 400.584726 540.650618 400.579829 541.005376 400.574972 541.360133 400.570158 541.714891 400.565387 542.069648 400.560660 542.424406 400.555977 542.779164 400.551341 543.133921 400.546752 543.488679 400.542211 543.843437 400.537719 544.198194 400.533278 544.552952 400.528888 544.907709 400.524550 545.262467 400.520264 545.617225 400.516030 545.971982 400.511848 546.326740 400.507718 546.681498 400.503638 547.036255 400.499610 547.391013 400.495633 547.745770 400.491707 548.100528 400.487831 548.455286 400.484005 548.810043 400.480229 549.164801 400.476503 549.519559 400.472827 549.874316 400.469200 550.229074 400.465623 550.583831 400.462094 550.938589 400.458615 551.293347 400.455183 551.648104 400.451801 552.002862 400.448466 552.357620 400.445180 552.712377 400.441941 553.067135 400.438750 553.421892 400.435606 553.776650 400.432509 554.131408 400.429459 554.486165 400.426456 554.840923 400.423499 555.195681 400.420589 555.550438 400.417725 555.905196 400.414906 556.259953 400.412133 556.614711 400.409406 556.969469 400.406724 557.324226 400.404087 557.678984 400.401495 558.033742 400.398947 558.388499 400.396444 558.743257 400.393985 559.098014 400.391570 559.452772 400.389199 559.807530 400.386872 560.162287 400.384587 560.517045 400.382346 560.871803 400.380148 561.226560 400.377993 561.581318 400.375880 561.936075 400.373809 562.290833 400.371781 562.645591 400.369794 563.000348 400.367850 563.355106 400.365946 563.709864 400.364084 564.064621 400.362263 564.419379 400.360483 564.774136 400.358743 565.128894 400.357044 565.483652 400.355385 565.838409 400.353766 566.193167 400.352187 566.547924 400.350647 566.902682 400.349147 567.257440 400.347686 567.612197 400.346264 567.966955 400.344881 568.321713 400.343536 568.676470 400.342230 569.031228 400.340962 569.385985 400.339731 569.740743 400.338539 570.095501 400.337383 570.450258 400.336266 570.805016 400.335185 571.159774 400.334141 571.514531 400.333134 571.869289 400.332163 572.224046 400.331228 572.578804 400.330330 572.933562 400.329467 573.288319 400.328640 573.643077 400.327848 573.997835 400.327092 574.352592 400.326370 574.707350 400.325683 575.062107 400.325031 575.416865 400.324413 575.771623 400.323829 576.126380 400.323280 576.481138 400.322764 576.835896 400.322281 577.190653 400.321832 577.545411 400.321416 577.900168 400.321033 578.254926 400.320682 578.609684 400.320364 578.964441 400.320078 579.319199 400.319824 579.673957 400.319602 580.028714 400.319412 580.383472 400.319253 580.738229 400.319125 581.092987 400.319029 581.447745 400.318963 581.802502 400.318928 582.157260 400.318923 582.512018 400.318948 582.866775 400.319003 583.221533 400.319088 583.576290 400.319203 583.931048 400.319346 584.285806 400.319519 584.640563 400.319721 584.995321 400.319952 585.350079 400.320211 585.704836 400.320498 586.059594 400.320813 586.414351 400.321157 586.769109 400.321527 587.123867 400.321926 587.478624 400.322351 587.833382 400.322804 588.188140 400.323283 588.542897 400.323789 588.897655 400.324322 589.252412 400.324880 589.607170 400.325465 589.961928 400.326075 590.316685 400.326711 590.671443 400.327372 591.026201 400.328058 591.380958 400.328770 591.735716 400.329506 592.090473 400.330266 592.445231 400.331051 592.799989 400.331860 593.154746 400.332693 593.509504 400.333549 593.864261 400.334429 594.219019 400.335332 594.573777 400.336258 594.928534 400.337207 595.283292 400.338179 595.638050 400.339173 595.992807 400.340189 596.347565 400.341228 596.702322 400.342288 597.057080 400.343369 597.411838 400.344472 597.766595 400.345596 598.121353 400.346742 598.476111 400.347907 598.830868 400.349094 599.185626 400.350300 599.540383 400.351527 599.895141 400.352774 600.249899 400.354040 600.604656 400.355326 600.959414 400.356631 601.314172 400.357956 601.668929 400.359299 602.023687 400.360660 602.378444 400.362040 602.733202 400.363439 603.087960 400.364855 603.442717 400.366289 603.797475 400.367741 604.152233 400.369210 604.506990 400.370697 604.861748 400.372200 605.216505 400.373720 605.571263 400.375257 605.926021 400.376810 606.280778 400.378379 606.635536 400.379964 606.990294 400.381564 607.345051 400.383181 607.699809 400.384812 608.054566 400.386459 608.409324 400.388120 608.764082 400.389796 609.118839 400.391487 609.473597 400.393192 609.828355 400.394910 610.183112 400.396643 610.537870 400.398389 610.892627 400.400149 611.247385 400.401922 611.602143 400.403708 611.956900 400.405507 612.311658 400.407318 612.666416 400.409141 613.021173 400.410977 613.375931 400.412825 613.730688 400.414684 614.085446 400.416555 614.440204 400.418437 614.794961 400.420331 615.149719 400.422235 615.504477 400.424150 615.859234 400.426075 616.213992 400.428011 616.568749 400.429957 616.923507 400.431912 617.278265 400.433877 617.633022 400.435852 617.987780 400.437836 618.342538 400.439829 618.697295 400.441830 619.052053 400.443841 619.406810 400.445859 619.761568 400.447886 620.116326 400.449921 620.471083 400.451963 620.825841 400.454013 621.180598 400.456071 621.535356 400.458135 621.890114 400.460207 622.244871 400.462285 622.599629 400.464369 622.954387 400.466460 623.309144 400.468557 623.663902 400.470660 624.018659 400.472768 624.373417 400.474882 624.728175 400.477001 625.082932 400.479126 625.437690 400.481255 625.792448 400.483388 626.147205 400.485526 626.501963 400.487669 626.856720 400.489815 627.211478 400.491965 627.566236 400.494118 627.920993 400.496275 628.275751 400.498435 628.630509 400.500598 628.985266 400.502764 629.340024 400.504932 629.694781 400.507102 630.049539 400.509275 630.404297 400.511449 630.759054 400.513626 631.113812 400.515803 631.468570 400.517982 631.823327 400.520162 632.178085 400.522343 632.532842 400.524524 632.887600 400.526706 633.242358 400.528888" class="line reactive nofill"/></g></g><g class="titles"><text x="400.0" y="26" class="title plot_title">主题: 路由器CPU利用率</text></g><g transform="translate(120, 46)" class="plot overlay"><g class="series serie-0 color-0"><g class="dots"><circle cx="12.416516817366263" cy="395.81678325246" r="2.5" class="dot reactive tooltip-trigger"/><desc class="value">18</desc><desc class="x top">12.416516817366263</desc><desc class="y top">395.81678325246</desc><desc class="x_label">10:59:05</desc></g><g class="dots"><circle cx="101.1059226556967" cy="400.5288878149893" r="2.5" class="dot reactive tooltip-trigger"/><desc class="value">17</desc><desc class="x top">101.1059226556967</desc><desc class="y top">400.5288878149893</desc><desc class="x_label">11:00:04</desc></g><g class="dots"><circle cx="189.79532849402716" cy="400.5288878149893" r="2.5" class="dot reactive tooltip-trigger"/><desc class="value">17</desc><desc class="x top">189.79532849402716</desc><desc class="y top">400.5288878149893</desc><desc class="x_label">11:01:05</desc></g><g class="dots"><circle cx="278.4847343323576" cy="400.5288878149893" r="2.5" class="dot reactive tooltip-trigger"/><desc class="value">17</desc><desc class="x top">278.4847343323576</desc><desc class="y top">400.5288878149893</desc><desc class="x_label">11:02:04</desc></g><g class="dots"><circle cx="367.1741401706881" cy="395.81678325246" r="2.5" class="dot reactive tooltip-trigger"/><desc class="value">18</desc><desc class="x left top">367.1741401706881</desc><desc class="y left top">395.81678325246</desc><desc class="x_label">11:02:09</desc></g><g class="dots"><circle cx="455.86354600901853" cy="400.5288878149893" r="2.5" class="dot reactive tooltip-trigger"/><desc class="value">17</desc><desc class="x left top">455.86354600901853</desc><desc class="y left top">400.5288878149893</desc><desc class="x_label">11:03:04</desc></g><g class="dots"><circle cx="544.5529518473489" cy="400.5288878149893" r="2.5" class="dot reactive tooltip-trigger"/><desc class="value">17</desc><desc class="x left top">544.5529518473489</desc><desc class="y left top">400.5288878149893</desc><desc class="x_label">11:04:00</desc></g><g class="dots"><circle cx="633.2423576856794" cy="400.5288878149893" r="2.5" class="dot reactive tooltip-trigger"/><desc class="value">17</desc><desc class="x left top">633.2423576856794</desc><desc class="y left top">400.5288878149893</desc><desc class="x_label">11:04:03</desc></g></g></g><g transform="translate(120, 46)" class="plot text-overlay"><g class="series serie-0 color-0"/></g><g transform="translate(120, 46)" class="plot tooltip-overlay"><g transform="translate(0 0)" style="opacity: 0" class="tooltip"><rect rx="0" ry="0" width="0" height="0" class="tooltip-box"/><g class="text"/></g></g><g transform="translate(10, 56)" class="legends"><g id="activate-serie-0" class="legend reactive activate-serie"><rect x="0.0" y="1.0" width="12" height="12" class="color-0 reactive"/><text x="17.0" y="11.2">CPU利用率</text></g></g><g transform="translate(776, 56)" class="legends"/></g></svg>