<?xml version='1.0' encoding='utf-8'?>
<svg xmlns="http://www.w3.org/2000/svg" xmlns:xlink="http://www.w3.org/1999/xlink" id="chart-9a0afcf6-8482-4627-9421-fb9b38b2ea23" class="pygal-chart" viewBox="0 0 800 600"><!--Generated with pygal 3.0.5 (lxml) ©Kozea 2012-2016 on 2024-12-21--><!--http://pygal.org--><!--http://github.com/Kozea/pygal--><defs><style type="text/css">#chart-9a0afcf6-8482-4627-9421-fb9b38b2ea23{-webkit-user-select:none;-webkit-font-smoothing:antialiased;font-family:Consolas,"Liberation Mono",Menlo,Courier,monospace}#chart-9a0afcf6-8482-4627-9421-fb9b38b2ea23 .title{font-family:Noto Sans CJK SC;font-size:16px}#chart-9a0afcf6-8482-4627-9421-fb9b38b2ea23 .legends .legend text{font-family:Noto Sans CJK SC;font-size:14px}#chart-9a0afcf6-8482-4627-9421-fb9b38b2ea23 .axis text{font-family:Noto Sans CJK SC;font-size:10px}#chart-9a0afcf6-8482-4627-9421-fb9b38b2ea23 .axis text.major{font-family:Noto Sans CJK SC;font-size:10px}#chart-9a0afcf6-8482-4627-9421-fb9b38b2ea23 .text-overlay text.value{font-family:Noto Sans CJK SC;font-size:16px}#chart-9a0afcf6-8482-4627-9421-fb9b38b2ea23 .text-overlay text.label{font-family:Consolas,"Liberation Mono",Menlo,Courier,monospace;font-size:10px}#chart-9a0afcf6-8482-4627-9421-fb9b38b2ea23 .tooltip{font-family:Consolas,"Liberation Mono",Menlo,Courier,monospace;font-size:14px}#chart-9a0afcf6-8482-4627-9421-fb9b38b2ea23 text.no_data{font-family:Consolas,"Liberation Mono",Menlo,Courier,monospace;font-size:64px}
#chart-9a0afcf6-8482-4627-9421-fb9b38b2ea23{background-color:rgba(249,249,249,1)}#chart-9a0afcf6-8482-4627-9421-fb9b38b2ea23 path,#chart-9a0afcf6-8482-4627-9421-fb9b38b2ea23 line,#chart-9a0afcf6-8482-4627-9421-fb9b38b2ea23 rect,#chart-9a0afcf6-8482-4627-9421-fb9b38b2ea23 circle{-webkit-transition:150ms;-moz-transition:150ms;transition:150ms}#chart-9a0afcf6-8482-4627-9421-fb9b38b2ea23 .graph &gt; .background{fill:rgba(249,249,249,1)}#chart-9a0afcf6-8482-4627-9421-fb9b38b2ea23 .plot &gt; .background{fill:rgba(255,255,255,1)}#chart-9a0afcf6-8482-4627-9421-fb9b38b2ea23 .graph{fill:rgba(0,0,0,.87)}#chart-9a0afcf6-8482-4627-9421-fb9b38b2ea23 text.no_data{fill:rgba(0,0,0,1)}#chart-9a0afcf6-8482-4627-9421-fb9b38b2ea23 .title{fill:rgba(0,0,0,1)}#chart-9a0afcf6-8482-4627-9421-fb9b38b2ea23 .legends .legend text{fill:rgba(0,0,0,.87)}#chart-9a0afcf6-8482-4627-9421-fb9b38b2ea23 .legends .legend:hover text{fill:rgba(0,0,0,1)}#chart-9a0afcf6-8482-4627-9421-fb9b38b2ea23 .axis .line{stroke:rgba(0,0,0,1)}#chart-9a0afcf6-8482-4627-9421-fb9b38b2ea23 .axis .guide.line{stroke:rgba(0,0,0,.54)}#chart-9a0afcf6-8482-4627-9421-fb9b38b2ea23 .axis .major.line{stroke:rgba(0,0,0,.87)}#chart-9a0afcf6-8482-4627-9421-fb9b38b2ea23 .axis text.major{fill:rgba(0,0,0,1)}#chart-9a0afcf6-8482-4627-9421-fb9b38b2ea23 .axis.y .guides:hover .guide.line,#chart-9a0afcf6-8482-4627-9421-fb9b38b2ea23 .line-graph .axis.x .guides:hover .guide.line,#chart-9a0afcf6-8482-4627-9421-fb9b38b2ea23 .stackedline-graph .axis.x .guides:hover .guide.line,#chart-9a0afcf6-8482-4627-9421-fb9b38b2ea23 .xy-graph .axis.x .guides:hover .guide.line{stroke:rgba(0,0,0,1)}#chart-9a0afcf6-8482-4627-9421-fb9b38b2ea23 .axis .guides:hover text{fill:rgba(0,0,0,1)}#chart-9a0afcf6-8482-4627-9421-fb9b38b2ea23 .reactive{fill-opacity:.7;stroke-opacity:.8;stroke-width:1}#chart-9a0afcf6-8482-4627-9421-fb9b38b2ea23 .ci{stroke:rgba(0,0,0,.87)}#chart-9a0afcf6-8482-4627-9421-fb9b38b2ea23 .reactive.active,#chart-9a0afcf6-8482-4627-9421-fb9b38b2ea23 .active .reactive{fill-opacity:.8;stroke-opacity:.9;stroke-width:4}#chart-9a0afcf6-8482-4627-9421-fb9b38b2ea23 .ci .reactive.active{stroke-width:1.5}#chart-9a0afcf6-8482-4627-9421-fb9b38b2ea23 .series text{fill:rgba(0,0,0,1)}#chart-9a0afcf6-8482-4627-9421-fb9b38b2ea23 .tooltip rect{fill:rgba(255,255,255,1);stroke:rgba(0,0,0,1);-webkit-transition:opacity 150ms;-moz-transition:opacity 150ms;transition:opacity 150ms}#chart-9a0afcf6-8482-4627-9421-fb9b38b2ea23 .tooltip .label{fill:rgba(0,0,0,.87)}#chart-9a0afcf6-8482-4627-9421-fb9b38b2ea23 .tooltip .label{fill:rgba(0,0,0,.87)}#chart-9a0afcf6-8482-4627-9421-fb9b38b2ea23 .tooltip .legend{font-size:.8em;fill:rgba(0,0,0,.54)}#chart-9a0afcf6-8482-4627-9421-fb9b38b2ea23 .tooltip .x_label{font-size:.6em;fill:rgba(0,0,0,1)}#chart-9a0afcf6-8482-4627-9421-fb9b38b2ea23 .tooltip .xlink{font-size:.5em;text-decoration:underline}#chart-9a0afcf6-8482-4627-9421-fb9b38b2ea23 .tooltip .value{font-size:1.5em}#chart-9a0afcf6-8482-4627-9421-fb9b38b2ea23 .bound{font-size:.5em}#chart-9a0afcf6-8482-4627-9421-fb9b38b2ea23 .max-value{font-size:.75em;fill:rgba(0,0,0,.54)}#chart-9a0afcf6-8482-4627-9421-fb9b38b2ea23 .map-element{fill:rgba(255,255,255,1);stroke:rgba(0,0,0,.54) !important}#chart-9a0afcf6-8482-4627-9421-fb9b38b2ea23 .map-element .reactive{fill-opacity:inherit;stroke-opacity:inherit}#chart-9a0afcf6-8482-4627-9421-fb9b38b2ea23 .color-0,#chart-9a0afcf6-8482-4627-9421-fb9b38b2ea23 .color-0 a:visited{stroke:#F44336;fill:#F44336}#chart-9a0afcf6-8482-4627-9421-fb9b38b2ea23 .text-overlay .color-0 text{fill:black}
#chart-9a0afcf6-8482-4627-9421-fb9b38b2ea23 text.no_data{text-anchor:middle}#chart-9a0afcf6-8482-4627-9421-fb9b38b2ea23 .guide.line{fill:none}#chart-9a0afcf6-8482-4627-9421-fb9b38b2ea23 .centered{text-anchor:middle}#chart-9a0afcf6-8482-4627-9421-fb9b38b2ea23 .title{text-anchor:middle}#chart-9a0afcf6-8482-4627-9421-fb9b38b2ea23 .legends .legend text{fill-opacity:1}#chart-9a0afcf6-8482-4627-9421-fb9b38b2ea23 .axis.x text{text-anchor:middle}#chart-9a0afcf6-8482-4627-9421-fb9b38b2ea23 .axis.x:not(.web) text[transform]{text-anchor:start}#chart-9a0afcf6-8482-4627-9421-fb9b38b2ea23 .axis.x:not(.web) text[transform].backwards{text-anchor:end}#chart-9a0afcf6-8482-4627-9421-fb9b38b2ea23 .axis.y text{text-anchor:end}#chart-9a0afcf6-8482-4627-9421-fb9b38b2ea23 .axis.y text[transform].backwards{text-anchor:start}#chart-9a0afcf6-8482-4627-9421-fb9b38b2ea23 .axis.y2 text{text-anchor:start}#chart-9a0afcf6-8482-4627-9421-fb9b38b2ea23 .axis.y2 text[transform].backwards{text-anchor:end}#chart-9a0afcf6-8482-4627-9421-fb9b38b2ea23 .axis .guide.line{stroke-dasharray:4,4;stroke:black}#chart-9a0afcf6-8482-4627-9421-fb9b38b2ea23 .axis .major.guide.line{stroke-dasharray:6,6;stroke:black}#chart-9a0afcf6-8482-4627-9421-fb9b38b2ea23 .horizontal .axis.y .guide.line,#chart-9a0afcf6-8482-4627-9421-fb9b38b2ea23 .horizontal .axis.y2 .guide.line,#chart-9a0afcf6-8482-4627-9421-fb9b38b2ea23 .vertical .axis.x .guide.line{opacity:0}#chart-9a0afcf6-8482-4627-9421-fb9b38b2ea23 .horizontal .axis.always_show .guide.line,#chart-9a0afcf6-8482-4627-9421-fb9b38b2ea23 .vertical .axis.always_show .guide.line{opacity:1 !important}#chart-9a0afcf6-8482-4627-9421-fb9b38b2ea23 .axis.y .guides:hover .guide.line,#chart-9a0afcf6-8482-4627-9421-fb9b38b2ea23 .axis.y2 .guides:hover .guide.line,#chart-9a0afcf6-8482-4627-9421-fb9b38b2ea23 .axis.x .guides:hover .guide.line{opacity:1}#chart-9a0afcf6-8482-4627-9421-fb9b38b2ea23 .axis .guides:hover text{opacity:1}#chart-9a0afcf6-8482-4627-9421-fb9b38b2ea23 .nofill{fill:none}#chart-9a0afcf6-8482-4627-9421-fb9b38b2ea23 .subtle-fill{fill-opacity:.2}#chart-9a0afcf6-8482-4627-9421-fb9b38b2ea23 .dot{stroke-width:1px;fill-opacity:1;stroke-opacity:1}#chart-9a0afcf6-8482-4627-9421-fb9b38b2ea23 .dot.active{stroke-width:5px}#chart-9a0afcf6-8482-4627-9421-fb9b38b2ea23 .dot.negative{fill:transparent}#chart-9a0afcf6-8482-4627-9421-fb9b38b2ea23 text,#chart-9a0afcf6-8482-4627-9421-fb9b38b2ea23 tspan{stroke:none !important}#chart-9a0afcf6-8482-4627-9421-fb9b38b2ea23 .series text.active{opacity:1}#chart-9a0afcf6-8482-4627-9421-fb9b38b2ea23 .tooltip rect{fill-opacity:.95;stroke-width:.5}#chart-9a0afcf6-8482-4627-9421-fb9b38b2ea23 .tooltip text{fill-opacity:1}#chart-9a0afcf6-8482-4627-9421-fb9b38b2ea23 .showable{visibility:hidden}#chart-9a0afcf6-8482-4627-9421-fb9b38b2ea23 .showable.shown{visibility:visible}#chart-9a0afcf6-8482-4627-9421-fb9b38b2ea23 .gauge-background{fill:rgba(229,229,229,1);stroke:none}#chart-9a0afcf6-8482-4627-9421-fb9b38b2ea23 .bg-lines{stroke:rgba(249,249,249,1);stroke-width:2px}</style><script type="text/javascript">window.pygal = window.pygal || {};window.pygal.config = window.pygal.config || {};window.pygal.config['9a0afcf6-8482-4627-9421-fb9b38b2ea23'] = {"allow_interruptions": false, "box_mode": "extremes", "classes": ["pygal-chart"], "css": ["file://style.css", "file://graph.css"], "defs": [], "disable_xml_declaration": false, "dots_size": 2.5, "dynamic_print_values": false, "explicit_size": false, "fill": false, "force_uri_protocol": "https", "formatter": null, "half_pie": false, "height": 600, "include_x_axis": false, "inner_radius": 0, "interpolate": "cubic", "interpolation_parameters": {}, "interpolation_precision": 250, "inverse_y_axis": false, "js": ["//kozea.github.io/pygal.js/2.0.x/pygal-tooltips.min.js"], "legend_at_bottom": false, "legend_at_bottom_columns": null, "legend_box_size": 12, "logarithmic": false, "margin": 20, "margin_bottom": null, "margin_left": null, "margin_right": null, "margin_top": null, "max_scale": 16, "min_scale": 4, "missing_value_fill_truncation": "x", "no_data_text": "No data", "no_prefix": false, "order_min": null, "pretty_print": false, "print_labels": false, "print_values": false, "print_values_position": "center", "print_zeroes": true, "range": [0, 100], "rounded_bars": null, "secondary_range": null, "show_dots": true, "show_legend": true, "show_minor_x_labels": true, "show_minor_y_labels": true, "show_only_major_dots": false, "show_x_guides": false, "show_x_labels": true, "show_y_guides": true, "show_y_labels": true, "spacing": 10, "stack_from_top": false, "strict": false, "stroke": true, "stroke_style": null, "style": {"background": "rgba(249, 249, 249, 1)", "ci_colors": [], "colors": ["#F44336", "#3F51B5", "#009688", "#FFC107", "#FF5722", "#9C27B0", "#03A9F4", "#8BC34A", "#FF9800", "#E91E63", "#2196F3", "#4CAF50", "#FFEB3B", "#673AB7", "#00BCD4", "#CDDC39", "#9E9E9E", "#607D8B"], "dot_opacity": "1", "font_family": "Consolas, \"Liberation Mono\", Menlo, Courier, monospace", "foreground": "rgba(0, 0, 0, .87)", "foreground_strong": "rgba(0, 0, 0, 1)", "foreground_subtle": "rgba(0, 0, 0, .54)", "guide_stroke_color": "black", "guide_stroke_dasharray": "4,4", "label_font_family": "Noto Sans CJK SC", "label_font_size": 10, "legend_font_family": "Noto Sans CJK SC", "legend_font_size": 14, "major_guide_stroke_color": "black", "major_guide_stroke_dasharray": "6,6", "major_label_font_family": "Noto Sans CJK SC", "major_label_font_size": 10, "no_data_font_family": "Consolas, \"Liberation Mono\", Menlo, Courier, monospace", "no_data_font_size": 64, "opacity": ".7", "opacity_hover": ".8", "plot_background": "rgba(255, 255, 255, 1)", "stroke_opacity": ".8", "stroke_opacity_hover": ".9", "stroke_width": "1", "stroke_width_hover": "4", "title_font_family": "Noto Sans CJK SC", "title_font_size": 16, "tooltip_font_family": "Consolas, \"Liberation Mono\", Menlo, Courier, monospace", "tooltip_font_size": 14, "transition": "150ms", "value_background": "rgba(229, 229, 229, 1)", "value_colors": [], "value_font_family": "Noto Sans CJK SC", "value_font_size": 16, "value_label_font_family": "Consolas, \"Liberation Mono\", Menlo, Courier, monospace", "value_label_font_size": 10}, "title": "\u4e3b\u9898: \u8def\u7531\u5668\u5185\u5b58\u5229\u7528\u7387", "tooltip_border_radius": 0, "tooltip_fancy_mode": true, "truncate_label": null, "truncate_legend": null, "width": 800, "x_label_rotation": 45, "x_labels": ["10:59:05", "11:00:04", "11:01:05", "11:02:04", "11:02:09", "11:03:04", "11:04:00", "11:04:03"], "x_labels_major": null, "x_labels_major_count": null, "x_labels_major_every": null, "x_title": null, "xrange": null, "y_label_rotation": 0, "y_labels": null, "y_labels_major": null, "y_labels_major_count": null, "y_labels_major_every": null, "y_title": null, "zero": 0, "legends": ["MEM\u5229\u7528\u7387"]}</script><script type="text/javascript" xlink:href="https://kozea.github.io/pygal.js/2.0.x/pygal-tooltips.min.js"/></defs><title>主题: 路由器内存利用率</title><g class="graph line-graph vertical"><rect x="0" y="0" width="800" height="600" class="background"/><g transform="translate(120, 46)" class="plot"><rect x="0" y="0" width="645.6588745030457" height="490.05887450304573" class="background"/><g class="axis y always_show"><g class="guides"><path d="M0.000000 480.634665 h645.658875" class="axis major line"/><text x="-5" y="484.1346653779872" class="major">0</text><title>0</title></g><g class="guides"><path d="M0.000000 433.513620 h645.658875" class="guide line"/><text x="-5" y="437.0136197526943" class="">10</text><title>10</title></g><g class="guides"><path d="M0.000000 386.392574 h645.658875" class="guide line"/><text x="-5" y="389.8925741274014" class="">20</text><title>20</title></g><g class="guides"><path d="M0.000000 339.271529 h645.658875" class="guide line"/><text x="-5" y="342.7715285021086" class="">30</text><title>30</title></g><g class="guides"><path d="M0.000000 292.150483 h645.658875" class="guide line"/><text x="-5" y="295.6504828768158" class="">40</text><title>40</title></g><g class="guides"><path d="M0.000000 245.029437 h645.658875" class="major guide line"/><text x="-5" y="248.52943725152286" class="major">50</text><title>50</title></g><g class="guides"><path d="M0.000000 197.908392 h645.658875" class="guide line"/><text x="-5" y="201.40839162623" class="">60</text><title>60</title></g><g class="guides"><path d="M0.000000 150.787346 h645.658875" class="guide line"/><text x="-5" y="154.28734600093713" class="">70</text><title>70</title></g><g class="guides"><path d="M0.000000 103.666300 h645.658875" class="guide line"/><text x="-5" y="107.16630037564425" class="">80</text><title>80</title></g><g class="guides"><path d="M0.000000 56.545255 h645.658875" class="guide line"/><text x="-5" y="60.045254750351376" class="">90</text><title>90</title></g><g class="guides"><path d="M0.000000 9.424209 h645.658875" class="major guide line"/><text x="-5" y="12.92420912505861" class="major">100</text><title>100</title></g></g><g class="axis x"><g class="guides"><path d="M12.416517 0.000000 v490.058875" class="line"/><text x="12.416516817366263" y="505.05887450304573" class="" transform="rotate(45 12.416517 505.058875)">10:59:05</text></g><g class="guides"><path d="M101.105923 0.000000 v490.058875" class="guide line"/><text x="101.1059226556967" y="505.05887450304573" class="" transform="rotate(45 101.105923 505.058875)">11:00:04</text></g><g class="guides"><path d="M189.795328 0.000000 v490.058875" class="guide line"/><text x="189.79532849402716" y="505.05887450304573" class="" transform="rotate(45 189.795328 505.058875)">11:01:05</text></g><g class="guides"><path d="M278.484734 0.000000 v490.058875" class="guide line"/><text x="278.4847343323576" y="505.05887450304573" class="" transform="rotate(45 278.484734 505.058875)">11:02:04</text></g><g class="guides"><path d="M367.174140 0.000000 v490.058875" class="guide line"/><text x="367.1741401706881" y="505.05887450304573" class="" transform="rotate(45 367.174140 505.058875)">11:02:09</text></g><g class="guides"><path d="M455.863546 0.000000 v490.058875" class="guide line"/><text x="455.86354600901853" y="505.05887450304573" class="" transform="rotate(45 455.863546 505.058875)">11:03:04</text></g><g class="guides"><path d="M544.552952 0.000000 v490.058875" class="guide line"/><text x="544.5529518473489" y="505.05887450304573" class="" transform="rotate(45 544.552952 505.058875)">11:04:00</text></g><g class="guides"><path d="M633.242358 0.000000 v490.058875" class="guide line"/><text x="633.2423576856794" y="505.05887450304573" class="" transform="rotate(45 633.242358 505.058875)">11:04:03</text></g></g><g class="series serie-0 color-0"><path d="M12.416517 179.059973 L12.771274 179.059973 13.126032 179.059973 13.480790 179.059973 13.835547 179.059973 14.190305 179.059973 14.545063 179.059973 14.899820 179.059973 15.254578 179.059973 15.609335 179.059973 15.964093 179.059973 16.318851 179.059973 16.673608 179.059973 17.028366 179.059973 17.383124 179.059973 17.737881 179.059973 18.092639 179.059973 18.447396 179.059973 18.802154 179.059973 19.156912 179.059973 19.511669 179.059973 19.866427 179.059973 20.221185 179.059973 20.575942 179.059973 20.930700 179.059973 21.285457 179.059973 21.640215 179.059973 21.994973 179.059973 22.349730 179.059973 22.704488 179.059973 23.059246 179.059973 23.414003 179.059973 23.768761 179.059973 24.123518 179.059973 24.478276 179.059973 24.833034 179.059973 25.187791 179.059973 25.542549 179.059973 25.897307 179.059973 26.252064 179.059973 26.606822 179.059973 26.961579 179.059973 27.316337 179.059973 27.671095 179.059973 28.025852 179.059973 28.380610 179.059973 28.735367 179.059973 29.090125 179.059973 29.444883 179.059973 29.799640 179.059973 30.154398 179.059973 30.509156 179.059973 30.863913 179.059973 31.218671 179.059973 31.573428 179.059973 31.928186 179.059973 32.282944 179.059973 32.637701 179.059973 32.992459 179.059973 33.347217 179.059973 33.701974 179.059973 34.056732 179.059973 34.411489 179.059973 34.766247 179.059973 35.121005 179.059973 35.475762 179.059973 35.830520 179.059973 36.185278 179.059973 36.540035 179.059973 36.894793 179.059973 37.249550 179.059973 37.604308 179.059973 37.959066 179.059973 38.313823 179.059973 38.668581 179.059973 39.023339 179.059973 39.378096 179.059973 39.732854 179.059973 40.087611 179.059973 40.442369 179.059973 40.797127 179.059973 41.151884 179.059973 41.506642 179.059973 41.861400 179.059973 42.216157 179.059973 42.570915 179.059973 42.925672 179.059973 43.280430 179.059973 43.635188 179.059973 43.989945 179.059973 44.344703 179.059973 44.699461 179.059973 45.054218 179.059973 45.408976 179.059973 45.763733 179.059973 46.118491 179.059973 46.473249 179.059973 46.828006 179.059973 47.182764 179.059973 47.537522 179.059973 47.892279 179.059973 48.247037 179.059973 48.601794 179.059973 48.956552 179.059973 49.311310 179.059973 49.666067 179.059973 50.020825 179.059973 50.375583 179.059973 50.730340 179.059973 51.085098 179.059973 51.439855 179.059973 51.794613 179.059973 52.149371 179.059973 52.504128 179.059973 52.858886 179.059973 53.213644 179.059973 53.568401 179.059973 53.923159 179.059973 54.277916 179.059973 54.632674 179.059973 54.987432 179.059973 55.342189 179.059973 55.696947 179.059973 56.051704 179.059973 56.406462 179.059973 56.761220 179.059973 57.115977 179.059973 57.470735 179.059973 57.825493 179.059973 58.180250 179.059973 58.535008 179.059973 58.889765 179.059973 59.244523 179.059973 59.599281 179.059973 59.954038 179.059973 60.308796 179.059973 60.663554 179.059973 61.018311 179.059973 61.373069 179.059973 61.727826 179.059973 62.082584 179.059973 62.437342 179.059973 62.792099 179.059973 63.146857 179.059973 63.501615 179.059973 63.856372 179.059973 64.211130 179.059973 64.565887 179.059973 64.920645 179.059973 65.275403 179.059973 65.630160 179.059973 65.984918 179.059973 66.339676 179.059973 66.694433 179.059973 67.049191 179.059973 67.403948 179.059973 67.758706 179.059973 68.113464 179.059973 68.468221 179.059973 68.822979 179.059973 69.177737 179.059973 69.532494 179.059973 69.887252 179.059973 70.242009 179.059973 70.596767 179.059973 70.951525 179.059973 71.306282 179.059973 71.661040 179.059973 72.015798 179.059973 72.370555 179.059973 72.725313 179.059973 73.080070 179.059973 73.434828 179.059973 73.789586 179.059973 74.144343 179.059973 74.499101 179.059973 74.853859 179.059973 75.208616 179.059973 75.563374 179.059973 75.918131 179.059973 76.272889 179.059973 76.627647 179.059973 76.982404 179.059973 77.337162 179.059973 77.691920 179.059973 78.046677 179.059973 78.401435 179.059973 78.756192 179.059973 79.110950 179.059973 79.465708 179.059973 79.820465 179.059973 80.175223 179.059973 80.529981 179.059973 80.884738 179.059973 81.239496 179.059973 81.594253 179.059973 81.949011 179.059973 82.303769 179.059973 82.658526 179.059973 83.013284 179.059973 83.368041 179.059973 83.722799 179.059973 84.077557 179.059973 84.432314 179.059973 84.787072 179.059973 85.141830 179.059973 85.496587 179.059973 85.851345 179.059973 86.206102 179.059973 86.560860 179.059973 86.915618 179.059973 87.270375 179.059973 87.625133 179.059973 87.979891 179.059973 88.334648 179.059973 88.689406 179.059973 89.044163 179.059973 89.398921 179.059973 89.753679 179.059973 90.108436 179.059973 90.463194 179.059973 90.817952 179.059973 91.172709 179.059973 91.527467 179.059973 91.882224 179.059973 92.236982 179.059973 92.591740 179.059973 92.946497 179.059973 93.301255 179.059973 93.656013 179.059973 94.010770 179.059973 94.365528 179.059973 94.720285 179.059973 95.075043 179.059973 95.429801 179.059973 95.784558 179.059973 96.139316 179.059973 96.494074 179.059973 96.848831 179.059973 97.203589 179.059973 97.558346 179.059973 97.913104 179.059973 98.267862 179.059973 98.622619 179.059973 98.977377 179.059973 99.332135 179.059973 99.686892 179.059973 100.041650 179.059973 100.396407 179.059973 100.751165 179.059973 101.105923 179.059973 101.460680 179.059973 101.815438 179.059973 102.170196 179.059973 102.524953 179.059973 102.879711 179.059973 103.234468 179.059973 103.589226 179.059973 103.943984 179.059973 104.298741 179.059973 104.653499 179.059973 105.008257 179.059973 105.363014 179.059973 105.717772 179.059973 106.072529 179.059973 106.427287 179.059973 106.782045 179.059973 107.136802 179.059973 107.491560 179.059973 107.846317 179.059973 108.201075 179.059973 108.555833 179.059973 108.910590 179.059973 109.265348 179.059973 109.620106 179.059973 109.974863 179.059973 110.329621 179.059973 110.684378 179.059973 111.039136 179.059973 111.393894 179.059973 111.748651 179.059973 112.103409 179.059973 112.458167 179.059973 112.812924 179.059973 113.167682 179.059973 113.522439 179.059973 113.877197 179.059973 114.231955 179.059973 114.586712 179.059973 114.941470 179.059973 115.296228 179.059973 115.650985 179.059973 116.005743 179.059973 116.360500 179.059973 116.715258 179.059973 117.070016 179.059973 117.424773 179.059973 117.779531 179.059973 118.134289 179.059973 118.489046 179.059973 118.843804 179.059973 119.198561 179.059973 119.553319 179.059973 119.908077 179.059973 120.262834 179.059973 120.617592 179.059973 120.972350 179.059973 121.327107 179.059973 121.681865 179.059973 122.036622 179.059973 122.391380 179.059973 122.746138 179.059973 123.100895 179.059973 123.455653 179.059973 123.810411 179.059973 124.165168 179.059973 124.519926 179.059973 124.874683 179.059973 125.229441 179.059973 125.584199 179.059973 125.938956 179.059973 126.293714 179.059973 126.648472 179.059973 127.003229 179.059973 127.357987 179.059973 127.712744 179.059973 128.067502 179.059973 128.422260 179.059973 128.777017 179.059973 129.131775 179.059973 129.486533 179.059973 129.841290 179.059973 130.196048 179.059973 130.550805 179.059973 130.905563 179.059973 131.260321 179.059973 131.615078 179.059973 131.969836 179.059973 132.324594 179.059973 132.679351 179.059973 133.034109 179.059973 133.388866 179.059973 133.743624 179.059973 134.098382 179.059973 134.453139 179.059973 134.807897 179.059973 135.162654 179.059973 135.517412 179.059973 135.872170 179.059973 136.226927 179.059973 136.581685 179.059973 136.936443 179.059973 137.291200 179.059973 137.645958 179.059973 138.000715 179.059973 138.355473 179.059973 138.710231 179.059973 139.064988 179.059973 139.419746 179.059973 139.774504 179.059973 140.129261 179.059973 140.484019 179.059973 140.838776 179.059973 141.193534 179.059973 141.548292 179.059973 141.903049 179.059973 142.257807 179.059973 142.612565 179.059973 142.967322 179.059973 143.322080 179.059973 143.676837 179.059973 144.031595 179.059973 144.386353 179.059973 144.741110 179.059973 145.095868 179.059973 145.450626 179.059973 145.805383 179.059973 146.160141 179.059973 146.514898 179.059973 146.869656 179.059973 147.224414 179.059973 147.579171 179.059973 147.933929 179.059973 148.288687 179.059973 148.643444 179.059973 148.998202 179.059973 149.352959 179.059973 149.707717 179.059973 150.062475 179.059973 150.417232 179.059973 150.771990 179.059973 151.126748 179.059973 151.481505 179.059973 151.836263 179.059973 152.191020 179.059973 152.545778 179.059973 152.900536 179.059973 153.255293 179.059973 153.610051 179.059973 153.964809 179.059973 154.319566 179.059973 154.674324 179.059973 155.029081 179.059973 155.383839 179.059973 155.738597 179.059973 156.093354 179.059973 156.448112 179.059973 156.802870 179.059973 157.157627 179.059973 157.512385 179.059973 157.867142 179.059973 158.221900 179.059973 158.576658 179.059973 158.931415 179.059973 159.286173 179.059973 159.640931 179.059973 159.995688 179.059973 160.350446 179.059973 160.705203 179.059973 161.059961 179.059973 161.414719 179.059973 161.769476 179.059973 162.124234 179.059973 162.478991 179.059973 162.833749 179.059973 163.188507 179.059973 163.543264 179.059973 163.898022 179.059973 164.252780 179.059973 164.607537 179.059973 164.962295 179.059973 165.317052 179.059973 165.671810 179.059973 166.026568 179.059973 166.381325 179.059973 166.736083 179.059973 167.090841 179.059973 167.445598 179.059973 167.800356 179.059973 168.155113 179.059973 168.509871 179.059973 168.864629 179.059973 169.219386 179.059973 169.574144 179.059973 169.928902 179.059973 170.283659 179.059973 170.638417 179.059973 170.993174 179.059973 171.347932 179.059973 171.702690 179.059973 172.057447 179.059973 172.412205 179.059973 172.766963 179.059973 173.121720 179.059973 173.476478 179.059973 173.831235 179.059973 174.185993 179.059973 174.540751 179.059973 174.895508 179.059973 175.250266 179.059973 175.605024 179.059973 175.959781 179.059973 176.314539 179.059973 176.669296 179.059973 177.024054 179.059973 177.378812 179.059973 177.733569 179.059973 178.088327 179.059973 178.443085 179.059973 178.797842 179.059973 179.152600 179.059973 179.507357 179.059973 179.862115 179.059973 180.216873 179.059973 180.571630 179.059973 180.926388 179.059973 181.281146 179.059973 181.635903 179.059973 181.990661 179.059973 182.345418 179.059973 182.700176 179.059973 183.054934 179.059973 183.409691 179.059973 183.764449 179.059973 184.119207 179.059973 184.473964 179.059973 184.828722 179.059973 185.183479 179.059973 185.538237 179.059973 185.892995 179.059973 186.247752 179.059973 186.602510 179.059973 186.957268 179.059973 187.312025 179.059973 187.666783 179.059973 188.021540 179.059973 188.376298 179.059973 188.731056 179.059973 189.085813 179.059973 189.440571 179.059973 189.795328 179.059973 190.150086 179.059973 190.504844 179.059973 190.859601 179.059973 191.214359 179.059973 191.569117 179.059973 191.923874 179.059973 192.278632 179.059973 192.633389 179.059973 192.988147 179.059973 193.342905 179.059973 193.697662 179.059973 194.052420 179.059973 194.407178 179.059973 194.761935 179.059973 195.116693 179.059973 195.471450 179.059973 195.826208 179.059973 196.180966 179.059973 196.535723 179.059973 196.890481 179.059973 197.245239 179.059973 197.599996 179.059973 197.954754 179.059973 198.309511 179.059973 198.664269 179.059973 199.019027 179.059973 199.373784 179.059973 199.728542 179.059973 200.083300 179.059973 200.438057 179.059973 200.792815 179.059973 201.147572 179.059973 201.502330 179.059973 201.857088 179.059973 202.211845 179.059973 202.566603 179.059973 202.921361 179.059973 203.276118 179.059973 203.630876 179.059973 203.985633 179.059973 204.340391 179.059973 204.695149 179.059973 205.049906 179.059973 205.404664 179.059973 205.759422 179.059973 206.114179 179.059973 206.468937 179.059973 206.823694 179.059973 207.178452 179.059973 207.533210 179.059973 207.887967 179.059973 208.242725 179.059973 208.597483 179.059973 208.952240 179.059973 209.306998 179.059973 209.661755 179.059973 210.016513 179.059973 210.371271 179.059973 210.726028 179.059973 211.080786 179.059973 211.435544 179.059973 211.790301 179.059973 212.145059 179.059973 212.499816 179.059973 212.854574 179.059973 213.209332 179.059973 213.564089 179.059973 213.918847 179.059973 214.273605 179.059973 214.628362 179.059973 214.983120 179.059973 215.337877 179.059973 215.692635 179.059973 216.047393 179.059973 216.402150 179.059973 216.756908 179.059973 217.111665 179.059973 217.466423 179.059973 217.821181 179.059973 218.175938 179.059973 218.530696 179.059973 218.885454 179.059973 219.240211 179.059973 219.594969 179.059973 219.949726 179.059973 220.304484 179.059973 220.659242 179.059973 221.013999 179.059973 221.368757 179.059973 221.723515 179.059973 222.078272 179.059973 222.433030 179.059973 222.787787 179.059973 223.142545 179.059973 223.497303 179.059973 223.852060 179.059973 224.206818 179.059973 224.561576 179.059973 224.916333 179.059973 225.271091 179.059973 225.625848 179.059973 225.980606 179.059973 226.335364 179.059973 226.690121 179.059973 227.044879 179.059973 227.399637 179.059973 227.754394 179.059973 228.109152 179.059973 228.463909 179.059973 228.818667 179.059973 229.173425 179.059973 229.528182 179.059973 229.882940 179.059973 230.237698 179.059973 230.592455 179.059973 230.947213 179.059973 231.301970 179.059973 231.656728 179.059973 232.011486 179.059973 232.366243 179.059973 232.721001 179.059973 233.075759 179.059973 233.430516 179.059973 233.785274 179.059973 234.140031 179.059973 234.494789 179.059973 234.849547 179.059973 235.204304 179.059973 235.559062 179.059973 235.913820 179.059973 236.268577 179.059973 236.623335 179.059973 236.978092 179.059973 237.332850 179.059973 237.687608 179.059973 238.042365 179.059973 238.397123 179.059973 238.751881 179.059973 239.106638 179.059973 239.461396 179.059973 239.816153 179.059973 240.170911 179.059973 240.525669 179.059973 240.880426 179.059973 241.235184 179.059973 241.589942 179.059973 241.944699 179.059973 242.299457 179.059973 242.654214 179.059973 243.008972 179.059973 243.363730 179.059973 243.718487 179.059973 244.073245 179.059973 244.428002 179.059973 244.782760 179.059973 245.137518 179.059973 245.492275 179.059973 245.847033 179.059973 246.201791 179.059973 246.556548 179.059973 246.911306 179.059973 247.266063 179.059973 247.620821 179.059973 247.975579 179.059973 248.330336 179.059973 248.685094 179.059973 249.039852 179.059973 249.394609 179.059973 249.749367 179.059973 250.104124 179.059973 250.458882 179.059973 250.813640 179.059973 251.168397 179.059973 251.523155 179.059973 251.877913 179.059973 252.232670 179.059973 252.587428 179.059973 252.942185 179.059973 253.296943 179.059973 253.651701 179.059973 254.006458 179.059973 254.361216 179.059973 254.715974 179.059973 255.070731 179.059973 255.425489 179.059973 255.780246 179.059973 256.135004 179.059973 256.489762 179.059973 256.844519 179.059973 257.199277 179.059973 257.554035 179.059973 257.908792 179.059973 258.263550 179.059973 258.618307 179.059973 258.973065 179.059973 259.327823 179.059973 259.682580 179.059973 260.037338 179.059973 260.392096 179.059973 260.746853 179.059973 261.101611 179.059973 261.456368 179.059973 261.811126 179.059973 262.165884 179.059973 262.520641 179.059973 262.875399 179.059973 263.230157 179.059973 263.584914 179.059973 263.939672 179.059973 264.294429 179.059973 264.649187 179.059973 265.003945 179.059973 265.358702 179.059973 265.713460 179.059973 266.068218 179.059973 266.422975 179.059973 266.777733 179.059973 267.132490 179.059973 267.487248 179.059973 267.842006 179.059973 268.196763 179.059973 268.551521 179.059973 268.906279 179.059973 269.261036 179.059973 269.615794 179.059973 269.970551 179.059973 270.325309 179.059973 270.680067 179.059973 271.034824 179.059973 271.389582 179.059973 271.744339 179.059973 272.099097 179.059973 272.453855 179.059973 272.808612 179.059973 273.163370 179.059973 273.518128 179.059973 273.872885 179.059973 274.227643 179.059973 274.582400 179.059973 274.937158 179.059973 275.291916 179.059973 275.646673 179.059973 276.001431 179.059973 276.356189 179.059973 276.710946 179.059973 277.065704 179.059973 277.420461 179.059973 277.775219 179.059973 278.129977 179.059973 278.484734 179.059973 278.839492 179.059973 279.194250 179.059973 279.549007 179.059973 279.903765 179.059973 280.258522 179.059973 280.613280 179.059973 280.968038 179.059973 281.322795 179.059973 281.677553 179.059973 282.032311 179.059973 282.387068 179.059973 282.741826 179.059973 283.096583 179.059973 283.451341 179.059973 283.806099 179.059973 284.160856 179.059973 284.515614 179.059973 284.870372 179.059973 285.225129 179.059973 285.579887 179.059973 285.934644 179.059973 286.289402 179.059973 286.644160 179.059973 286.998917 179.059973 287.353675 179.059973 287.708433 179.059973 288.063190 179.059973 288.417948 179.059973 288.772705 179.059973 289.127463 179.059973 289.482221 179.059973 289.836978 179.059973 290.191736 179.059973 290.546494 179.059973 290.901251 179.059973 291.256009 179.059973 291.610766 179.059973 291.965524 179.059973 292.320282 179.059973 292.675039 179.059973 293.029797 179.059973 293.384555 179.059973 293.739312 179.059973 294.094070 179.059973 294.448827 179.059973 294.803585 179.059973 295.158343 179.059973 295.513100 179.059973 295.867858 179.059973 296.222616 179.059973 296.577373 179.059973 296.932131 179.059973 297.286888 179.059973 297.641646 179.059973 297.996404 179.059973 298.351161 179.059973 298.705919 179.059973 299.060676 179.059973 299.415434 179.059973 299.770192 179.059973 300.124949 179.059973 300.479707 179.059973 300.834465 179.059973 301.189222 179.059973 301.543980 179.059973 301.898737 179.059973 302.253495 179.059973 302.608253 179.059973 302.963010 179.059973 303.317768 179.059973 303.672526 179.059973 304.027283 179.059973 304.382041 179.059973 304.736798 179.059973 305.091556 179.059973 305.446314 179.059973 305.801071 179.059973 306.155829 179.059973 306.510587 179.059973 306.865344 179.059973 307.220102 179.059973 307.574859 179.059973 307.929617 179.059973 308.284375 179.059973 308.639132 179.059973 308.993890 179.059973 309.348648 179.059973 309.703405 179.059973 310.058163 179.059973 310.412920 179.059973 310.767678 179.059973 311.122436 179.059973 311.477193 179.059973 311.831951 179.059973 312.186709 179.059973 312.541466 179.059973 312.896224 179.059973 313.250981 179.059973 313.605739 179.059973 313.960497 179.059973 314.315254 179.059973 314.670012 179.059973 315.024770 179.059973 315.379527 179.059973 315.734285 179.059973 316.089042 179.059973 316.443800 179.059973 316.798558 179.059973 317.153315 179.059973 317.508073 179.059973 317.862831 179.059973 318.217588 179.059973 318.572346 179.059973 318.927103 179.059973 319.281861 179.059973 319.636619 179.059973 319.991376 179.059973 320.346134 179.059973 320.700892 179.059973 321.055649 179.059973 321.410407 179.059973 321.765164 179.059973 322.119922 179.059973 322.474680 179.059973 322.829437 179.059973 323.184195 179.059973 323.538952 179.059973 323.893710 179.059973 324.248468 179.059973 324.603225 179.059973 324.957983 179.059973 325.312741 179.059973 325.667498 179.059973 326.022256 179.059973 326.377013 179.059973 326.731771 179.059973 327.086529 179.059973 327.441286 179.059973 327.796044 179.059973 328.150802 179.059973 328.505559 179.059973 328.860317 179.059973 329.215074 179.059973 329.569832 179.059973 329.924590 179.059973 330.279347 179.059973 330.634105 179.059973 330.988863 179.059973 331.343620 179.059973 331.698378 179.059973 332.053135 179.059973 332.407893 179.059973 332.762651 179.059973 333.117408 179.059973 333.472166 179.059973 333.826924 179.059973 334.181681 179.059973 334.536439 179.059973 334.891196 179.059973 335.245954 179.059973 335.600712 179.059973 335.955469 179.059973 336.310227 179.059973 336.664985 179.059973 337.019742 179.059973 337.374500 179.059973 337.729257 179.059973 338.084015 179.059973 338.438773 179.059973 338.793530 179.059973 339.148288 179.059973 339.503046 179.059973 339.857803 179.059973 340.212561 179.059973 340.567318 179.059973 340.922076 179.059973 341.276834 179.059973 341.631591 179.059973 341.986349 179.059973 342.341107 179.059973 342.695864 179.059973 343.050622 179.059973 343.405379 179.059973 343.760137 179.059973 344.114895 179.059973 344.469652 179.059973 344.824410 179.059973 345.179168 179.059973 345.533925 179.059973 345.888683 179.059973 346.243440 179.059973 346.598198 179.059973 346.952956 179.059973 347.307713 179.059973 347.662471 179.059973 348.017229 179.059973 348.371986 179.059973 348.726744 179.059973 349.081501 179.059973 349.436259 179.059973 349.791017 179.059973 350.145774 179.059973 350.500532 179.059973 350.855289 179.059973 351.210047 179.059973 351.564805 179.059973 351.919562 179.059973 352.274320 179.059973 352.629078 179.059973 352.983835 179.059973 353.338593 179.059973 353.693350 179.059973 354.048108 179.059973 354.402866 179.059973 354.757623 179.059973 355.112381 179.059973 355.467139 179.059973 355.821896 179.059973 356.176654 179.059973 356.531411 179.059973 356.886169 179.059973 357.240927 179.059973 357.595684 179.059973 357.950442 179.059973 358.305200 179.059973 358.659957 179.059973 359.014715 179.059973 359.369472 179.059973 359.724230 179.059973 360.078988 179.059973 360.433745 179.059973 360.788503 179.059973 361.143261 179.059973 361.498018 179.059973 361.852776 179.059973 362.207533 179.059973 362.562291 179.059973 362.917049 179.059973 363.271806 179.059973 363.626564 179.059973 363.981322 179.059973 364.336079 179.059973 364.690837 179.059973 365.045594 179.059973 365.400352 179.059973 365.755110 179.059973 366.109867 179.059973 366.464625 179.059973 366.819383 179.059973 367.174140 179.059973 367.528898 179.059973 367.883655 179.059973 368.238413 179.059973 368.593171 179.059973 368.947928 179.059973 369.302686 179.059973 369.657444 179.059973 370.012201 179.059973 370.366959 179.059973 370.721716 179.059973 371.076474 179.059973 371.431232 179.059973 371.785989 179.059973 372.140747 179.059973 372.495505 179.059973 372.850262 179.059973 373.205020 179.059973 373.559777 179.059973 373.914535 179.059973 374.269293 179.059973 374.624050 179.059973 374.978808 179.059973 375.333566 179.059973 375.688323 179.059973 376.043081 179.059973 376.397838 179.059973 376.752596 179.059973 377.107354 179.059973 377.462111 179.059973 377.816869 179.059973 378.171626 179.059973 378.526384 179.059973 378.881142 179.059973 379.235899 179.059973 379.590657 179.059973 379.945415 179.059973 380.300172 179.059973 380.654930 179.059973 381.009687 179.059973 381.364445 179.059973 381.719203 179.059973 382.073960 179.059973 382.428718 179.059973 382.783476 179.059973 383.138233 179.059973 383.492991 179.059973 383.847748 179.059973 384.202506 179.059973 384.557264 179.059973 384.912021 179.059973 385.266779 179.059973 385.621537 179.059973 385.976294 179.059973 386.331052 179.059973 386.685809 179.059973 387.040567 179.059973 387.395325 179.059973 387.750082 179.059973 388.104840 179.059973 388.459598 179.059973 388.814355 179.059973 389.169113 179.059973 389.523870 179.059973 389.878628 179.059973 390.233386 179.059973 390.588143 179.059973 390.942901 179.059973 391.297659 179.059973 391.652416 179.059973 392.007174 179.059973 392.361931 179.059973 392.716689 179.059973 393.071447 179.059973 393.426204 179.059973 393.780962 179.059973 394.135720 179.059973 394.490477 179.059973 394.845235 179.059973 395.199992 179.059973 395.554750 179.059973 395.909508 179.059973 396.264265 179.059973 396.619023 179.059973 396.973781 179.059973 397.328538 179.059973 397.683296 179.059973 398.038053 179.059973 398.392811 179.059973 398.747569 179.059973 399.102326 179.059973 399.457084 179.059973 399.811842 179.059973 400.166599 179.059973 400.521357 179.059973 400.876114 179.059973 401.230872 179.059973 401.585630 179.059973 401.940387 179.059973 402.295145 179.059973 402.649903 179.059973 403.004660 179.059973 403.359418 179.059973 403.714175 179.059973 404.068933 179.059973 404.423691 179.059973 404.778448 179.059973 405.133206 179.059973 405.487963 179.059973 405.842721 179.059973 406.197479 179.059973 406.552236 179.059973 406.906994 179.059973 407.261752 179.059973 407.616509 179.059973 407.971267 179.059973 408.326024 179.059973 408.680782 179.059973 409.035540 179.059973 409.390297 179.059973 409.745055 179.059973 410.099813 179.059973 410.454570 179.059973 410.809328 179.059973 411.164085 179.059973 411.518843 179.059973 411.873601 179.059973 412.228358 179.059973 412.583116 179.059973 412.937874 179.059973 413.292631 179.059973 413.647389 179.059973 414.002146 179.059973 414.356904 179.059973 414.711662 179.059973 415.066419 179.059973 415.421177 179.059973 415.775935 179.059973 416.130692 179.059973 416.485450 179.059973 416.840207 179.059973 417.194965 179.059973 417.549723 179.059973 417.904480 179.059973 418.259238 179.059973 418.613996 179.059973 418.968753 179.059973 419.323511 179.059973 419.678268 179.059973 420.033026 179.059973 420.387784 179.059973 420.742541 179.059973 421.097299 179.059973 421.452057 179.059973 421.806814 179.059973 422.161572 179.059973 422.516329 179.059973 422.871087 179.059973 423.225845 179.059973 423.580602 179.059973 423.935360 179.059973 424.290118 179.059973 424.644875 179.059973 424.999633 179.059973 425.354390 179.059973 425.709148 179.059973 426.063906 179.059973 426.418663 179.059973 426.773421 179.059973 427.128179 179.059973 427.482936 179.059973 427.837694 179.059973 428.192451 179.059973 428.547209 179.059973 428.901967 179.059973 429.256724 179.059973 429.611482 179.059973 429.966240 179.059973 430.320997 179.059973 430.675755 179.059973 431.030512 179.059973 431.385270 179.059973 431.740028 179.059973 432.094785 179.059973 432.449543 179.059973 432.804300 179.059973 433.159058 179.059973 433.513816 179.059973 433.868573 179.059973 434.223331 179.059973 434.578089 179.059973 434.932846 179.059973 435.287604 179.059973 435.642361 179.059973 435.997119 179.059973 436.351877 179.059973 436.706634 179.059973 437.061392 179.059973 437.416150 179.059973 437.770907 179.059973 438.125665 179.059973 438.480422 179.059973 438.835180 179.059973 439.189938 179.059973 439.544695 179.059973 439.899453 179.059973 440.254211 179.059973 440.608968 179.059973 440.963726 179.059973 441.318483 179.059973 441.673241 179.059973 442.027999 179.059973 442.382756 179.059973 442.737514 179.059973 443.092272 179.059973 443.447029 179.059973 443.801787 179.059973 444.156544 179.059973 444.511302 179.059973 444.866060 179.059973 445.220817 179.059973 445.575575 179.059973 445.930333 179.059973 446.285090 179.059973 446.639848 179.059973 446.994605 179.059973 447.349363 179.059973 447.704121 179.059973 448.058878 179.059973 448.413636 179.059973 448.768394 179.059973 449.123151 179.059973 449.477909 179.059973 449.832666 179.059973 450.187424 179.059973 450.542182 179.059973 450.896939 179.059973 451.251697 179.059973 451.606455 179.059973 451.961212 179.059973 452.315970 179.059973 452.670727 179.059973 453.025485 179.059973 453.380243 179.059973 453.735000 179.059973 454.089758 179.059973 454.444516 179.059973 454.799273 179.059973 455.154031 179.059973 455.508788 179.059973 455.863546 179.059973 456.218304 179.059973 456.573061 179.059973 456.927819 179.059973 457.282577 179.059973 457.637334 179.059973 457.992092 179.059973 458.346849 179.059973 458.701607 179.059973 459.056365 179.059973 459.411122 179.059973 459.765880 179.059973 460.120637 179.059973 460.475395 179.059973 460.830153 179.059973 461.184910 179.059973 461.539668 179.059973 461.894426 179.059973 462.249183 179.059973 462.603941 179.059973 462.958698 179.059973 463.313456 179.059973 463.668214 179.059973 464.022971 179.059973 464.377729 179.059973 464.732487 179.059973 465.087244 179.059973 465.442002 179.059973 465.796759 179.059973 466.151517 179.059973 466.506275 179.059973 466.861032 179.059973 467.215790 179.059973 467.570548 179.059973 467.925305 179.059973 468.280063 179.059973 468.634820 179.059973 468.989578 179.059973 469.344336 179.059973 469.699093 179.059973 470.053851 179.059973 470.408609 179.059973 470.763366 179.059973 471.118124 179.059973 471.472881 179.059973 471.827639 179.059973 472.182397 179.059973 472.537154 179.059973 472.891912 179.059973 473.246670 179.059973 473.601427 179.059973 473.956185 179.059973 474.310942 179.059973 474.665700 179.059973 475.020458 179.059973 475.375215 179.059973 475.729973 179.059973 476.084731 179.059973 476.439488 179.059973 476.794246 179.059973 477.149003 179.059973 477.503761 179.059973 477.858519 179.059973 478.213276 179.059973 478.568034 179.059973 478.922792 179.059973 479.277549 179.059973 479.632307 179.059973 479.987064 179.059973 480.341822 179.059973 480.696580 179.059973 481.051337 179.059973 481.406095 179.059973 481.760853 179.059973 482.115610 179.059973 482.470368 179.059973 482.825125 179.059973 483.179883 179.059973 483.534641 179.059973 483.889398 179.059973 484.244156 179.059973 484.598914 179.059973 484.953671 179.059973 485.308429 179.059973 485.663186 179.059973 486.017944 179.059973 486.372702 179.059973 486.727459 179.059973 487.082217 179.059973 487.436974 179.059973 487.791732 179.059973 488.146490 179.059973 488.501247 179.059973 488.856005 179.059973 489.210763 179.059973 489.565520 179.059973 489.920278 179.059973 490.275035 179.059973 490.629793 179.059973 490.984551 179.059973 491.339308 179.059973 491.694066 179.059973 492.048824 179.059973 492.403581 179.059973 492.758339 179.059973 493.113096 179.059973 493.467854 179.059973 493.822612 179.059973 494.177369 179.059973 494.532127 179.059973 494.886885 179.059973 495.241642 179.059973 495.596400 179.059973 495.951157 179.059973 496.305915 179.059973 496.660673 179.059973 497.015430 179.059973 497.370188 179.059973 497.724946 179.059973 498.079703 179.059973 498.434461 179.059973 498.789218 179.059973 499.143976 179.059973 499.498734 179.059973 499.853491 179.059973 500.208249 179.059973 500.563007 179.059973 500.917764 179.059973 501.272522 179.059973 501.627279 179.059973 501.982037 179.059973 502.336795 179.059973 502.691552 179.059973 503.046310 179.059973 503.401068 179.059973 503.755825 179.059973 504.110583 179.059973 504.465340 179.059973 504.820098 179.059973 505.174856 179.059973 505.529613 179.059973 505.884371 179.059973 506.239129 179.059973 506.593886 179.059973 506.948644 179.059973 507.303401 179.059973 507.658159 179.059973 508.012917 179.059973 508.367674 179.059973 508.722432 179.059973 509.077190 179.059973 509.431947 179.059973 509.786705 179.059973 510.141462 179.059973 510.496220 179.059973 510.850978 179.059973 511.205735 179.059973 511.560493 179.059973 511.915250 179.059973 512.270008 179.059973 512.624766 179.059973 512.979523 179.059973 513.334281 179.059973 513.689039 179.059973 514.043796 179.059973 514.398554 179.059973 514.753311 179.059973 515.108069 179.059973 515.462827 179.059973 515.817584 179.059973 516.172342 179.059973 516.527100 179.059973 516.881857 179.059973 517.236615 179.059973 517.591372 179.059973 517.946130 179.059973 518.300888 179.059973 518.655645 179.059973 519.010403 179.059973 519.365161 179.059973 519.719918 179.059973 520.074676 179.059973 520.429433 179.059973 520.784191 179.059973 521.138949 179.059973 521.493706 179.059973 521.848464 179.059973 522.203222 179.059973 522.557979 179.059973 522.912737 179.059973 523.267494 179.059973 523.622252 179.059973 523.977010 179.059973 524.331767 179.059973 524.686525 179.059973 525.041283 179.059973 525.396040 179.059973 525.750798 179.059973 526.105555 179.059973 526.460313 179.059973 526.815071 179.059973 527.169828 179.059973 527.524586 179.059973 527.879344 179.059973 528.234101 179.059973 528.588859 179.059973 528.943616 179.059973 529.298374 179.059973 529.653132 179.059973 530.007889 179.059973 530.362647 179.059973 530.717405 179.059973 531.072162 179.059973 531.426920 179.059973 531.781677 179.059973 532.136435 179.059973 532.491193 179.059973 532.845950 179.059973 533.200708 179.059973 533.555466 179.059973 533.910223 179.059973 534.264981 179.059973 534.619738 179.059973 534.974496 179.059973 535.329254 179.059973 535.684011 179.059973 536.038769 179.059973 536.393527 179.059973 536.748284 179.059973 537.103042 179.059973 537.457799 179.059973 537.812557 179.059973 538.167315 179.059973 538.522072 179.059973 538.876830 179.059973 539.231587 179.059973 539.586345 179.059973 539.941103 179.059973 540.295860 179.059973 540.650618 179.059973 541.005376 179.059973 541.360133 179.059973 541.714891 179.059973 542.069648 179.059973 542.424406 179.059973 542.779164 179.059973 543.133921 179.059973 543.488679 179.059973 543.843437 179.059973 544.198194 179.059973 544.552952 179.059973 544.907709 179.059973 545.262467 179.059973 545.617225 179.059973 545.971982 179.059973 546.326740 179.059973 546.681498 179.059973 547.036255 179.059973 547.391013 179.059973 547.745770 179.059973 548.100528 179.059973 548.455286 179.059973 548.810043 179.059973 549.164801 179.059973 549.519559 179.059973 549.874316 179.059973 550.229074 179.059973 550.583831 179.059973 550.938589 179.059973 551.293347 179.059973 551.648104 179.059973 552.002862 179.059973 552.357620 179.059973 552.712377 179.059973 553.067135 179.059973 553.421892 179.059973 553.776650 179.059973 554.131408 179.059973 554.486165 179.059973 554.840923 179.059973 555.195681 179.059973 555.550438 179.059973 555.905196 179.059973 556.259953 179.059973 556.614711 179.059973 556.969469 179.059973 557.324226 179.059973 557.678984 179.059973 558.033742 179.059973 558.388499 179.059973 558.743257 179.059973 559.098014 179.059973 559.452772 179.059973 559.807530 179.059973 560.162287 179.059973 560.517045 179.059973 560.871803 179.059973 561.226560 179.059973 561.581318 179.059973 561.936075 179.059973 562.290833 179.059973 562.645591 179.059973 563.000348 179.059973 563.355106 179.059973 563.709864 179.059973 564.064621 179.059973 564.419379 179.059973 564.774136 179.059973 565.128894 179.059973 565.483652 179.059973 565.838409 179.059973 566.193167 179.059973 566.547924 179.059973 566.902682 179.059973 567.257440 179.059973 567.612197 179.059973 567.966955 179.059973 568.321713 179.059973 568.676470 179.059973 569.031228 179.059973 569.385985 179.059973 569.740743 179.059973 570.095501 179.059973 570.450258 179.059973 570.805016 179.059973 571.159774 179.059973 571.514531 179.059973 571.869289 179.059973 572.224046 179.059973 572.578804 179.059973 572.933562 179.059973 573.288319 179.059973 573.643077 179.059973 573.997835 179.059973 574.352592 179.059973 574.707350 179.059973 575.062107 179.059973 575.416865 179.059973 575.771623 179.059973 576.126380 179.059973 576.481138 179.059973 576.835896 179.059973 577.190653 179.059973 577.545411 179.059973 577.900168 179.059973 578.254926 179.059973 578.609684 179.059973 578.964441 179.059973 579.319199 179.059973 579.673957 179.059973 580.028714 179.059973 580.383472 179.059973 580.738229 179.059973 581.092987 179.059973 581.447745 179.059973 581.802502 179.059973 582.157260 179.059973 582.512018 179.059973 582.866775 179.059973 583.221533 179.059973 583.576290 179.059973 583.931048 179.059973 584.285806 179.059973 584.640563 179.059973 584.995321 179.059973 585.350079 179.059973 585.704836 179.059973 586.059594 179.059973 586.414351 179.059973 586.769109 179.059973 587.123867 179.059973 587.478624 179.059973 587.833382 179.059973 588.188140 179.059973 588.542897 179.059973 588.897655 179.059973 589.252412 179.059973 589.607170 179.059973 589.961928 179.059973 590.316685 179.059973 590.671443 179.059973 591.026201 179.059973 591.380958 179.059973 591.735716 179.059973 592.090473 179.059973 592.445231 179.059973 592.799989 179.059973 593.154746 179.059973 593.509504 179.059973 593.864261 179.059973 594.219019 179.059973 594.573777 179.059973 594.928534 179.059973 595.283292 179.059973 595.638050 179.059973 595.992807 179.059973 596.347565 179.059973 596.702322 179.059973 597.057080 179.059973 597.411838 179.059973 597.766595 179.059973 598.121353 179.059973 598.476111 179.059973 598.830868 179.059973 599.185626 179.059973 599.540383 179.059973 599.895141 179.059973 600.249899 179.059973 600.604656 179.059973 600.959414 179.059973 601.314172 179.059973 601.668929 179.059973 602.023687 179.059973 602.378444 179.059973 602.733202 179.059973 603.087960 179.059973 603.442717 179.059973 603.797475 179.059973 604.152233 179.059973 604.506990 179.059973 604.861748 179.059973 605.216505 179.059973 605.571263 179.059973 605.926021 179.059973 606.280778 179.059973 606.635536 179.059973 606.990294 179.059973 607.345051 179.059973 607.699809 179.059973 608.054566 179.059973 608.409324 179.059973 608.764082 179.059973 609.118839 179.059973 609.473597 179.059973 609.828355 179.059973 610.183112 179.059973 610.537870 179.059973 610.892627 179.059973 611.247385 179.059973 611.602143 179.059973 611.956900 179.059973 612.311658 179.059973 612.666416 179.059973 613.021173 179.059973 613.375931 179.059973 613.730688 179.059973 614.085446 179.059973 614.440204 179.059973 614.794961 179.059973 615.149719 179.059973 615.504477 179.059973 615.859234 179.059973 616.213992 179.059973 616.568749 179.059973 616.923507 179.059973 617.278265 179.059973 617.633022 179.059973 617.987780 179.059973 618.342538 179.059973 618.697295 179.059973 619.052053 179.059973 619.406810 179.059973 619.761568 179.059973 620.116326 179.059973 620.471083 179.059973 620.825841 179.059973 621.180598 179.059973 621.535356 179.059973 621.890114 179.059973 622.244871 179.059973 622.599629 179.059973 622.954387 179.059973 623.309144 179.059973 623.663902 179.059973 624.018659 179.059973 624.373417 179.059973 624.728175 179.059973 625.082932 179.059973 625.437690 179.059973 625.792448 179.059973 626.147205 179.059973 626.501963 179.059973 626.856720 179.059973 627.211478 179.059973 627.566236 179.059973 627.920993 179.059973 628.275751 179.059973 628.630509 179.059973 628.985266 179.059973 629.340024 179.059973 629.694781 179.059973 630.049539 179.059973 630.404297 179.059973 630.759054 179.059973 631.113812 179.059973 631.468570 179.059973 631.823327 179.059973 632.178085 179.059973 632.532842 179.059973 632.887600 179.059973 633.242358 179.059973" class="line reactive nofill"/></g></g><g class="titles"><text x="400.0" y="26" class="title plot_title">主题: 路由器内存利用率</text></g><g transform="translate(120, 46)" class="plot overlay"><g class="series serie-0 color-0"><g class="dots"><circle cx="12.416516817366263" cy="179.05997337611285" r="2.5" class="dot reactive tooltip-trigger"/><desc class="value">64</desc><desc class="x ">12.416516817366263</desc><desc class="y ">179.05997337611285</desc><desc class="x_label">10:59:05</desc></g><g class="dots"><circle cx="101.1059226556967" cy="179.05997337611285" r="2.5" class="dot reactive tooltip-trigger"/><desc class="value">64</desc><desc class="x ">101.1059226556967</desc><desc class="y ">179.05997337611285</desc><desc class="x_label">11:00:04</desc></g><g class="dots"><circle cx="189.79532849402716" cy="179.05997337611285" r="2.5" class="dot reactive tooltip-trigger"/><desc class="value">64</desc><desc class="x ">189.79532849402716</desc><desc class="y ">179.05997337611285</desc><desc class="x_label">11:01:05</desc></g><g class="dots"><circle cx="278.4847343323576" cy="179.05997337611285" r="2.5" class="dot reactive tooltip-trigger"/><desc class="value">64</desc><desc class="x ">278.4847343323576</desc><desc class="y ">179.05997337611285</desc><desc class="x_label">11:02:04</desc></g><g class="dots"><circle cx="367.1741401706881" cy="179.05997337611285" r="2.5" class="dot reactive tooltip-trigger"/><desc class="value">64</desc><desc class="x left">367.1741401706881</desc><desc class="y left">179.05997337611285</desc><desc class="x_label">11:02:09</desc></g><g class="dots"><circle cx="455.86354600901853" cy="179.05997337611285" r="2.5" class="dot reactive tooltip-trigger"/><desc class="value">64</desc><desc class="x left">455.86354600901853</desc><desc class="y left">179.05997337611285</desc><desc class="x_label">11:03:04</desc></g><g class="dots"><circle cx="544.5529518473489" cy="179.05997337611285" r="2.5" class="dot reactive tooltip-trigger"/><desc class="value">64</desc><desc class="x left">544.5529518473489</desc><desc class="y left">179.05997337611285</desc><desc class="x_label">11:04:00</desc></g><g class="dots"><circle cx="633.2423576856794" cy="179.05997337611285" r="2.5" class="dot reactive tooltip-trigger"/><desc class="value">64</desc><desc class="x left">633.2423576856794</desc><desc class="y left">179.05997337611285</desc><desc class="x_label">11:04:03</desc></g></g></g><g transform="translate(120, 46)" class="plot text-overlay"><g class="series serie-0 color-0"/></g><g transform="translate(120, 46)" class="plot tooltip-overlay"><g transform="translate(0 0)" style="opacity: 0" class="tooltip"><rect rx="0" ry="0" width="0" height="0" class="tooltip-box"/><g class="text"/></g></g><g transform="translate(10, 56)" class="legends"><g id="activate-serie-0" class="legend reactive activate-serie"><rect x="0.0" y="1.0" width="12" height="12" class="color-0 reactive"/><text x="17.0" y="11.2">MEM利用率</text></g></g><g transform="translate(776, 56)" class="legends"/></g></svg>